<?xml version="1.0" encoding="UTF-8" standalone="no"?>
<!DOCTYPE svg PUBLIC "-//W3C//DTD SVG 1.1//EN"
 "http://www.w3.org/Graphics/SVG/1.1/DTD/svg11.dtd">
<!-- Generated by graphviz version 2.40.1 (20161225.0304)
 -->
<!-- Title: foo.example_2 Pages: 1 -->
<svg width="466pt" height="472pt"
 viewBox="0.00 0.00 465.50 472.00" xmlns="http://www.w3.org/2000/svg" xmlns:xlink="http://www.w3.org/1999/xlink">
<g id="graph0" class="graph" transform="scale(1 1) rotate(0) translate(4 468)">
<title>foo.example_2</title>
<polygon fill="#ffffff" stroke="transparent" points="-4,4 -4,-468 461.5,-468 461.5,4 -4,4"/>
<!-- foo.example_2 -->
<g id="node1" class="node">
<title>foo.example_2</title>
<polygon fill="#efefef" stroke="transparent" points="46.5,-382.5 46.5,-417.5 275.5,-417.5 275.5,-382.5 46.5,-382.5"/>
<polygon fill="none" stroke="#000000" points="46.5,-382.5 46.5,-417.5 275.5,-417.5 275.5,-382.5 46.5,-382.5"/>
<text text-anchor="start" x="53.3529" y="-395.3" font-family="Arial Bold" font-size="18.00" fill="#000000">foo.example_2</text>
<text text-anchor="start" x="171.3933" y="-395.3" font-family="Arial" font-size="14.00" fill="#000000"> </text>
<text text-anchor="start" x="175.2839" y="-395.3" font-family="Arial" font-size="14.00" fill="#666666">[BASE TABLE]</text>
<polygon fill="none" stroke="#000000" points="46.5,-352.5 46.5,-382.5 275.5,-382.5 275.5,-352.5 46.5,-352.5"/>
<text text-anchor="start" x="53.5" y="-363.9" font-family="Arial" font-size="14.00" fill="#000000">id </text>
<text text-anchor="start" x="68.2798" y="-363.9" font-family="Arial" font-size="14.00" fill="#666666">[integer]</text>
<polygon fill="none" stroke="#000000" points="46.5,-322.5 46.5,-352.5 275.5,-352.5 275.5,-322.5 46.5,-322.5"/>
<text text-anchor="start" x="53.5" y="-333.9" font-family="Arial" font-size="14.00" fill="#000000">name </text>
<text text-anchor="start" x="92.399" y="-333.9" font-family="Arial" font-size="14.00" fill="#666666">[varchar(255)]</text>
<polygon fill="none" stroke="#000000" points="46.5,-292.5 46.5,-322.5 275.5,-322.5 275.5,-292.5 46.5,-292.5"/>
<text text-anchor="start" x="53.5" y="-303.9" font-family="Arial" font-size="14.00" fill="#000000">example_1_id </text>
<text text-anchor="start" x="144.5252" y="-303.9" font-family="Arial" font-size="14.00" fill="#666666">[integer]</text>
<polygon fill="none" stroke="#000000" stroke-width="3" points="44.5,-291.5 44.5,-419.5 276.5,-419.5 276.5,-291.5 44.5,-291.5"/>
</g>
<!-- foo.example -->
<g id="node2" class="node">
<title>foo.example</title>
<polygon fill="#efefef" stroke="transparent" points="56.5,-132.5 56.5,-167.5 265.5,-167.5 265.5,-132.5 56.5,-132.5"/>
<polygon fill="none" stroke="#000000" points="56.5,-132.5 56.5,-167.5 265.5,-167.5 265.5,-132.5 56.5,-132.5"/>
<text text-anchor="start" x="63.3591" y="-145.3" font-family="Arial Bold" font-size="18.00" fill="#000000">foo.example</text>
<text text-anchor="start" x="161.3871" y="-145.3" font-family="Arial" font-size="14.00" fill="#000000"> </text>
<text text-anchor="start" x="165.2777" y="-145.3" font-family="Arial" font-size="14.00" fill="#666666">[BASE TABLE]</text>
<polygon fill="none" stroke="#000000" points="56.5,-102.5 56.5,-132.5 265.5,-132.5 265.5,-102.5 56.5,-102.5"/>
<text text-anchor="start" x="63.5" y="-113.9" font-family="Arial" font-size="14.00" fill="#000000">id </text>
<text text-anchor="start" x="78.2798" y="-113.9" font-family="Arial" font-size="14.00" fill="#666666">[integer]</text>
<polygon fill="none" stroke="#000000" points="56.5,-72.5 56.5,-102.5 265.5,-102.5 265.5,-72.5 56.5,-72.5"/>
<text text-anchor="start" x="63.5" y="-83.9" font-family="Arial" font-size="14.00" fill="#000000">example_schema_id </text>
<text text-anchor="start" x="195.751" y="-83.9" font-family="Arial" font-size="14.00" fill="#666666">[integer]</text>
<polygon fill="none" stroke="#000000" points="56.5,-42.5 56.5,-72.5 265.5,-72.5 265.5,-42.5 56.5,-42.5"/>
<text text-anchor="start" x="63.5" y="-53.9" font-family="Arial" font-size="14.00" fill="#000000">name </text>
<text text-anchor="start" x="102.399" y="-53.9" font-family="Arial" font-size="14.00" fill="#666666">[varchar(255)]</text>
</g>
<!-- foo.example_2&#45;&gt;foo.example -->
<g id="edge1" class="edge">
<title>foo.example_2:example_1_id&#45;&gt;foo.example:id</title>
<path fill="none" stroke="#000000" d="M160.6062,-282.4324C151.8298,-236.9271 80.857,-260.739 56.5,-211 38.224,-173.6791 14.9444,-117.5 56.5,-117.5"/>
<polygon fill="#000000" stroke="#000000" points="160.6156,-282.5392 157.0176,-292.898 161.0578,-287.5196 161.5,-292.5 161.5,-292.5 161.5,-292.5 161.0578,-287.5196 165.9824,-292.102 160.6156,-282.5392 160.6156,-282.5392"/>
<text text-anchor="start" x="168.1005" y="-302.5" font-family="Arial" font-size="10.00" fill="#000000">FOREIGN KEY (example_1_id) REFERENCES foo.example(id)</text>
</g>
</g>
</svg>
