<?xml version="1.0" encoding="UTF-8" standalone="no"?>
<!DOCTYPE svg PUBLIC "-//W3C//DTD SVG 1.1//EN"
 "http://www.w3.org/Graphics/SVG/1.1/DTD/svg11.dtd">
<!-- Generated by graphviz version 2.40.1 (20161225.0304)
 -->
<!-- Title: foo.example Pages: 1 -->
<svg width="463pt" height="472pt"
 viewBox="0.00 0.00 462.50 472.00" xmlns="http://www.w3.org/2000/svg" xmlns:xlink="http://www.w3.org/1999/xlink">
<g id="graph0" class="graph" transform="scale(1 1) rotate(0) translate(4 468)">
<title>foo.example</title>
<polygon fill="#ffffff" stroke="transparent" points="-4,4 -4,-468 458.5,-468 458.5,4 -4,4"/>
<!-- foo.example -->
<g id="node1" class="node">
<title>foo.example</title>
<polygon fill="#efefef" stroke="transparent" points="53.5,-135.5 53.5,-170.5 262.5,-170.5 262.5,-135.5 53.5,-135.5"/>
<polygon fill="none" stroke="#000000" points="53.5,-135.5 53.5,-170.5 262.5,-170.5 262.5,-135.5 53.5,-135.5"/>
<text text-anchor="start" x="60.3591" y="-148.3" font-family="Arial Bold" font-size="18.00" fill="#000000">foo.example</text>
<text text-anchor="start" x="158.3871" y="-148.3" font-family="Arial" font-size="14.00" fill="#000000"> </text>
<text text-anchor="start" x="162.2777" y="-148.3" font-family="Arial" font-size="14.00" fill="#666666">[BASE TABLE]</text>
<polygon fill="none" stroke="#000000" points="53.5,-105.5 53.5,-135.5 262.5,-135.5 262.5,-105.5 53.5,-105.5"/>
<text text-anchor="start" x="60.5" y="-116.9" font-family="Arial" font-size="14.00" fill="#000000">id </text>
<text text-anchor="start" x="75.2798" y="-116.9" font-family="Arial" font-size="14.00" fill="#666666">[integer]</text>
<polygon fill="none" stroke="#000000" points="53.5,-75.5 53.5,-105.5 262.5,-105.5 262.5,-75.5 53.5,-75.5"/>
<text text-anchor="start" x="60.5" y="-86.9" font-family="Arial" font-size="14.00" fill="#000000">example_schema_id </text>
<text text-anchor="start" x="192.751" y="-86.9" font-family="Arial" font-size="14.00" fill="#666666">[integer]</text>
<polygon fill="none" stroke="#000000" points="53.5,-45.5 53.5,-75.5 262.5,-75.5 262.5,-45.5 53.5,-45.5"/>
<text text-anchor="start" x="60.5" y="-56.9" font-family="Arial" font-size="14.00" fill="#000000">name </text>
<text text-anchor="start" x="99.399" y="-56.9" font-family="Arial" font-size="14.00" fill="#666666">[varchar(255)]</text>
<polygon fill="none" stroke="#000000" stroke-width="3" points="51.5,-44.5 51.5,-172.5 263.5,-172.5 263.5,-44.5 51.5,-44.5"/>
</g>
<!-- foo.example_2 -->
<g id="node2" class="node">
<title>foo.example_2</title>
<polygon fill="#efefef" stroke="transparent" points="43.5,-385.5 43.5,-420.5 272.5,-420.5 272.5,-385.5 43.5,-385.5"/>
<polygon fill="none" stroke="#000000" points="43.5,-385.5 43.5,-420.5 272.5,-420.5 272.5,-385.5 43.5,-385.5"/>
<text text-anchor="start" x="50.3529" y="-398.3" font-family="Arial Bold" font-size="18.00" fill="#000000">foo.example_2</text>
<text text-anchor="start" x="168.3933" y="-398.3" font-family="Arial" font-size="14.00" fill="#000000"> </text>
<text text-anchor="start" x="172.2839" y="-398.3" font-family="Arial" font-size="14.00" fill="#666666">[BASE TABLE]</text>
<polygon fill="none" stroke="#000000" points="43.5,-355.5 43.5,-385.5 272.5,-385.5 272.5,-355.5 43.5,-355.5"/>
<text text-anchor="start" x="50.5" y="-366.9" font-family="Arial" font-size="14.00" fill="#000000">id </text>
<text text-anchor="start" x="65.2798" y="-366.9" font-family="Arial" font-size="14.00" fill="#666666">[integer]</text>
<polygon fill="none" stroke="#000000" points="43.5,-325.5 43.5,-355.5 272.5,-355.5 272.5,-325.5 43.5,-325.5"/>
<text text-anchor="start" x="50.5" y="-336.9" font-family="Arial" font-size="14.00" fill="#000000">name </text>
<text text-anchor="start" x="89.399" y="-336.9" font-family="Arial" font-size="14.00" fill="#666666">[varchar(255)]</text>
<polygon fill="none" stroke="#000000" points="43.5,-295.5 43.5,-325.5 272.5,-325.5 272.5,-295.5 43.5,-295.5"/>
<text text-anchor="start" x="50.5" y="-306.9" font-family="Arial" font-size="14.00" fill="#000000">example_1_id </text>
<text text-anchor="start" x="141.5252" y="-306.9" font-family="Arial" font-size="14.00" fill="#666666">[integer]</text>
</g>
<!-- foo.example_2&#45;&gt;foo.example -->
<g id="edge1" class="edge">
<title>foo.example_2:example_1_id&#45;&gt;foo.example:id</title>
<path fill="none" stroke="#000000" d="M157.5519,-285.3102C148.5483,-240.9917 77.9154,-265.7377 53.5,-217 34.2903,-178.6537 10.6111,-120.5 53.5,-120.5"/>
<polygon fill="#000000" stroke="#000000" points="157.5735,-285.543 154.0194,-295.9169 158.0368,-290.5215 158.5,-295.5 158.5,-295.5 158.5,-295.5 158.0368,-290.5215 162.9806,-295.0831 157.5735,-285.543 157.5735,-285.543"/>
<text text-anchor="start" x="165.1005" y="-305.5" font-family="Arial" font-size="10.00" fill="#000000">FOREIGN KEY (example_1_id) REFERENCES foo.example(id)</text>
</g>
</g>
</svg>
