<?xml version="1.0" encoding="UTF-8" standalone="no"?>
<!DOCTYPE svg PUBLIC "-//W3C//DTD SVG 1.1//EN"
 "http://www.w3.org/Graphics/SVG/1.1/DTD/svg11.dtd">
<!-- Generated by graphviz version 2.40.1 (20161225.0304)
 -->
<!-- Title: db&#45;example Pages: 1 -->
<svg width="864pt" height="466pt"
 viewBox="0.00 0.00 863.50 466.00" xmlns="http://www.w3.org/2000/svg" xmlns:xlink="http://www.w3.org/1999/xlink">
<g id="graph0" class="graph" transform="scale(1 1) rotate(0) translate(4 462)">
<title>db&#45;example</title>
<polygon fill="#ffffff" stroke="transparent" points="-4,4 -4,-462 859.5,-462 859.5,4 -4,4"/>
<!-- foo.schema_migrations -->
<g id="node1" class="node">
<title>foo.schema_migrations</title>
<polygon fill="#efefef" stroke="transparent" points="43.5,-364.5 43.5,-399.5 340.5,-399.5 340.5,-364.5 43.5,-364.5"/>
<polygon fill="none" stroke="#000000" points="43.5,-364.5 43.5,-399.5 340.5,-399.5 340.5,-364.5 43.5,-364.5"/>
<text text-anchor="start" x="50.3563" y="-377.3" font-family="Arial Bold" font-size="18.00" fill="#000000">foo.schema_migrations</text>
<text text-anchor="start" x="236.3899" y="-377.3" font-family="Arial" font-size="14.00" fill="#000000"> </text>
<text text-anchor="start" x="240.2805" y="-377.3" font-family="Arial" font-size="14.00" fill="#666666">[BASE TABLE]</text>
<polygon fill="none" stroke="#000000" points="43.5,-334.5 43.5,-364.5 340.5,-364.5 340.5,-334.5 43.5,-334.5"/>
<text text-anchor="start" x="50.5" y="-345.9" font-family="Arial" font-size="14.00" fill="#000000">version </text>
<text text-anchor="start" x="99.5056" y="-345.9" font-family="Arial" font-size="14.00" fill="#666666">[bigint]</text>
<polygon fill="none" stroke="#000000" points="43.5,-304.5 43.5,-334.5 340.5,-334.5 340.5,-304.5 43.5,-304.5"/>
<text text-anchor="start" x="50.5" y="-315.9" font-family="Arial" font-size="14.00" fill="#000000">dirty </text>
<text text-anchor="start" x="80.831" y="-315.9" font-family="Arial" font-size="14.00" fill="#666666">[boolean]</text>
</g>
<!-- foo.example -->
<g id="node2" class="node">
<title>foo.example</title>
<polygon fill="#efefef" stroke="transparent" points="454.5,-132.5 454.5,-167.5 663.5,-167.5 663.5,-132.5 454.5,-132.5"/>
<polygon fill="none" stroke="#000000" points="454.5,-132.5 454.5,-167.5 663.5,-167.5 663.5,-132.5 454.5,-132.5"/>
<text text-anchor="start" x="461.3591" y="-145.3" font-family="Arial Bold" font-size="18.00" fill="#000000">foo.example</text>
<text text-anchor="start" x="559.3871" y="-145.3" font-family="Arial" font-size="14.00" fill="#000000"> </text>
<text text-anchor="start" x="563.2777" y="-145.3" font-family="Arial" font-size="14.00" fill="#666666">[BASE TABLE]</text>
<polygon fill="none" stroke="#000000" points="454.5,-102.5 454.5,-132.5 663.5,-132.5 663.5,-102.5 454.5,-102.5"/>
<text text-anchor="start" x="461.5" y="-113.9" font-family="Arial" font-size="14.00" fill="#000000">id </text>
<text text-anchor="start" x="476.2798" y="-113.9" font-family="Arial" font-size="14.00" fill="#666666">[integer]</text>
<polygon fill="none" stroke="#000000" points="454.5,-72.5 454.5,-102.5 663.5,-102.5 663.5,-72.5 454.5,-72.5"/>
<text text-anchor="start" x="461.5" y="-83.9" font-family="Arial" font-size="14.00" fill="#000000">example_schema_id </text>
<text text-anchor="start" x="593.751" y="-83.9" font-family="Arial" font-size="14.00" fill="#666666">[integer]</text>
<polygon fill="none" stroke="#000000" points="454.5,-42.5 454.5,-72.5 663.5,-72.5 663.5,-42.5 454.5,-42.5"/>
<text text-anchor="start" x="461.5" y="-53.9" font-family="Arial" font-size="14.00" fill="#000000">name </text>
<text text-anchor="start" x="500.399" y="-53.9" font-family="Arial" font-size="14.00" fill="#666666">[varchar(255)]</text>
</g>
<!-- foo.example_2 -->
<g id="node3" class="node">
<title>foo.example_2</title>
<polygon fill="#efefef" stroke="transparent" points="444.5,-379.5 444.5,-414.5 673.5,-414.5 673.5,-379.5 444.5,-379.5"/>
<polygon fill="none" stroke="#000000" points="444.5,-379.5 444.5,-414.5 673.5,-414.5 673.5,-379.5 444.5,-379.5"/>
<text text-anchor="start" x="451.3529" y="-392.3" font-family="Arial Bold" font-size="18.00" fill="#000000">foo.example_2</text>
<text text-anchor="start" x="569.3933" y="-392.3" font-family="Arial" font-size="14.00" fill="#000000"> </text>
<text text-anchor="start" x="573.2839" y="-392.3" font-family="Arial" font-size="14.00" fill="#666666">[BASE TABLE]</text>
<polygon fill="none" stroke="#000000" points="444.5,-349.5 444.5,-379.5 673.5,-379.5 673.5,-349.5 444.5,-349.5"/>
<text text-anchor="start" x="451.5" y="-360.9" font-family="Arial" font-size="14.00" fill="#000000">id </text>
<text text-anchor="start" x="466.2798" y="-360.9" font-family="Arial" font-size="14.00" fill="#666666">[integer]</text>
<polygon fill="none" stroke="#000000" points="444.5,-319.5 444.5,-349.5 673.5,-349.5 673.5,-319.5 444.5,-319.5"/>
<text text-anchor="start" x="451.5" y="-330.9" font-family="Arial" font-size="14.00" fill="#000000">name </text>
<text text-anchor="start" x="490.399" y="-330.9" font-family="Arial" font-size="14.00" fill="#666666">[varchar(255)]</text>
<polygon fill="none" stroke="#000000" points="444.5,-289.5 444.5,-319.5 673.5,-319.5 673.5,-289.5 444.5,-289.5"/>
<text text-anchor="start" x="451.5" y="-300.9" font-family="Arial" font-size="14.00" fill="#000000">example_1_id </text>
<text text-anchor="start" x="542.5252" y="-300.9" font-family="Arial" font-size="14.00" fill="#666666">[integer]</text>
</g>
<!-- foo.example_2&#45;&gt;foo.example -->
<g id="edge1" class="edge">
<title>foo.example_2:example_1_id&#45;&gt;foo.example:id</title>
<path fill="none" stroke="#000000" d="M558.5519,-279.3102C549.5483,-234.9917 478.9154,-259.7377 454.5,-211 435.8874,-173.8458 412.9444,-117.5 454.5,-117.5"/>
<polygon fill="#000000" stroke="#000000" points="558.5735,-279.543 555.0194,-289.9169 559.0368,-284.5215 559.5,-289.5 559.5,-289.5 559.5,-289.5 559.0368,-284.5215 563.9806,-289.0831 558.5735,-279.543 558.5735,-279.543"/>
<text text-anchor="start" x="566.1005" y="-299.5" font-family="Arial" font-size="10.00" fill="#000000">FOREIGN KEY (example_1_id) REFERENCES foo.example(id)</text>
</g>
</g>
</svg>
