<?xml version="1.0" encoding="UTF-8" standalone="no"?>
<!DOCTYPE svg PUBLIC "-//W3C//DTD SVG 1.1//EN"
 "http://www.w3.org/Graphics/SVG/1.1/DTD/svg11.dtd">
<!-- Generated by graphviz version 2.40.1 (20161225.0304)
 -->
<!-- Title: bar.example Pages: 1 -->
<svg width="736pt" height="442pt"
 viewBox="0.00 0.00 736.00 442.00" xmlns="http://www.w3.org/2000/svg" xmlns:xlink="http://www.w3.org/1999/xlink">
<g id="graph0" class="graph" transform="scale(1 1) rotate(0) translate(4 438)">
<title>bar.example</title>
<polygon fill="#ffffff" stroke="transparent" points="-4,4 -4,-438 732,-438 732,4 -4,4"/>
<!-- bar.example -->
<g id="node1" class="node">
<title>bar.example</title>
<polygon fill="#efefef" stroke="transparent" points="239,-105.5 239,-140.5 449,-140.5 449,-105.5 239,-105.5"/>
<polygon fill="none" stroke="#000000" points="239,-105.5 239,-140.5 449,-140.5 449,-105.5 239,-105.5"/>
<text text-anchor="start" x="245.8641" y="-118.3" font-family="Arial Bold" font-size="18.00" fill="#000000">bar.example</text>
<text text-anchor="start" x="344.8821" y="-118.3" font-family="Arial" font-size="14.00" fill="#000000"> </text>
<text text-anchor="start" x="348.7727" y="-118.3" font-family="Arial" font-size="14.00" fill="#666666">[BASE TABLE]</text>
<polygon fill="none" stroke="#000000" points="239,-75.5 239,-105.5 449,-105.5 449,-75.5 239,-75.5"/>
<text text-anchor="start" x="246" y="-86.9" font-family="Arial" font-size="14.00" fill="#000000">id </text>
<text text-anchor="start" x="260.7798" y="-86.9" font-family="Arial" font-size="14.00" fill="#666666">[integer]</text>
<polygon fill="none" stroke="#000000" points="239,-45.5 239,-75.5 449,-75.5 449,-45.5 239,-45.5"/>
<text text-anchor="start" x="246" y="-56.9" font-family="Arial" font-size="14.00" fill="#000000">name </text>
<text text-anchor="start" x="284.899" y="-56.9" font-family="Arial" font-size="14.00" fill="#666666">[varchar(255)]</text>
<polygon fill="none" stroke="#000000" stroke-width="3" points="237.5,-44.5 237.5,-142.5 450.5,-142.5 450.5,-44.5 237.5,-44.5"/>
</g>
<!-- bar.example_2 -->
<g id="node2" class="node">
<title>bar.example_2</title>
<polygon fill="#efefef" stroke="transparent" points="67,-355.5 67,-390.5 297,-390.5 297,-355.5 67,-355.5"/>
<polygon fill="none" stroke="#000000" points="67,-355.5 67,-390.5 297,-390.5 297,-355.5 67,-355.5"/>
<text text-anchor="start" x="73.8579" y="-368.3" font-family="Arial Bold" font-size="18.00" fill="#000000">bar.example_2</text>
<text text-anchor="start" x="192.8883" y="-368.3" font-family="Arial" font-size="14.00" fill="#000000"> </text>
<text text-anchor="start" x="196.7789" y="-368.3" font-family="Arial" font-size="14.00" fill="#666666">[BASE TABLE]</text>
<polygon fill="none" stroke="#000000" points="67,-325.5 67,-355.5 297,-355.5 297,-325.5 67,-325.5"/>
<text text-anchor="start" x="74" y="-336.9" font-family="Arial" font-size="14.00" fill="#000000">id </text>
<text text-anchor="start" x="88.7798" y="-336.9" font-family="Arial" font-size="14.00" fill="#666666">[integer]</text>
<polygon fill="none" stroke="#000000" points="67,-295.5 67,-325.5 297,-325.5 297,-295.5 67,-295.5"/>
<text text-anchor="start" x="74" y="-306.9" font-family="Arial" font-size="14.00" fill="#000000">name </text>
<text text-anchor="start" x="112.899" y="-306.9" font-family="Arial" font-size="14.00" fill="#666666">[varchar(255)]</text>
<polygon fill="none" stroke="#000000" points="67,-265.5 67,-295.5 297,-295.5 297,-265.5 67,-265.5"/>
<text text-anchor="start" x="74" y="-276.9" font-family="Arial" font-size="14.00" fill="#000000">example_1_id </text>
<text text-anchor="start" x="165.0252" y="-276.9" font-family="Arial" font-size="14.00" fill="#666666">[integer]</text>
</g>
<!-- bar.example_2&#45;&gt;bar.example -->
<g id="edge1" class="edge">
<title>bar.example_2:example_1_id&#45;&gt;bar.example:id</title>
<path fill="none" stroke="#000000" d="M306.9485,-277.6271C318.0623,-268.7904 307.288,-241.4943 297,-223 282.2511,-196.4865 253.7489,-213.5135 239,-187 218.1506,-149.5199 196.1111,-90.5 239,-90.5"/>
<polygon fill="#000000" stroke="#000000" points="306.6074,-277.7255 295.7515,-276.1767 301.8037,-279.1128 297,-280.5 297,-280.5 297,-280.5 301.8037,-279.1128 298.2485,-284.8233 306.6074,-277.7255 306.6074,-277.7255"/>
<text text-anchor="start" x="7.3255" y="-290.5" font-family="Arial" font-size="10.00" fill="#000000">FOREIGN KEY (example_1_id) REFERENCES bar.example(id)</text>
</g>
<!-- foo.example -->
<g id="node3" class="node">
<title>foo.example</title>
<polygon fill="#efefef" stroke="transparent" points="402,-355.5 402,-390.5 611,-390.5 611,-355.5 402,-355.5"/>
<polygon fill="none" stroke="#000000" points="402,-355.5 402,-390.5 611,-390.5 611,-355.5 402,-355.5"/>
<text text-anchor="start" x="408.8591" y="-368.3" font-family="Arial Bold" font-size="18.00" fill="#000000">foo.example</text>
<text text-anchor="start" x="506.8871" y="-368.3" font-family="Arial" font-size="14.00" fill="#000000"> </text>
<text text-anchor="start" x="510.7777" y="-368.3" font-family="Arial" font-size="14.00" fill="#666666">[BASE TABLE]</text>
<polygon fill="none" stroke="#000000" points="402,-325.5 402,-355.5 611,-355.5 611,-325.5 402,-325.5"/>
<text text-anchor="start" x="409" y="-336.9" font-family="Arial" font-size="14.00" fill="#000000">id </text>
<text text-anchor="start" x="423.7798" y="-336.9" font-family="Arial" font-size="14.00" fill="#666666">[integer]</text>
<polygon fill="none" stroke="#000000" points="402,-295.5 402,-325.5 611,-325.5 611,-295.5 402,-295.5"/>
<text text-anchor="start" x="409" y="-306.9" font-family="Arial" font-size="14.00" fill="#000000">example_schema_id </text>
<text text-anchor="start" x="541.251" y="-306.9" font-family="Arial" font-size="14.00" fill="#666666">[integer]</text>
<polygon fill="none" stroke="#000000" points="402,-265.5 402,-295.5 611,-295.5 611,-265.5 402,-265.5"/>
<text text-anchor="start" x="409" y="-276.9" font-family="Arial" font-size="14.00" fill="#000000">name </text>
<text text-anchor="start" x="447.899" y="-276.9" font-family="Arial" font-size="14.00" fill="#666666">[varchar(255)]</text>
</g>
<!-- foo.example&#45;&gt;bar.example -->
<g id="edge2" class="edge">
<title>foo.example:example_schema_id&#45;&gt;bar.example:id</title>
<path fill="none" stroke="#000000" d="M391.957,-308.9451C367.4676,-299.9929 386.5333,-254.3294 402,-223 413.6479,-199.4061 437.3521,-210.5939 449,-187 467.9859,-148.5423 491.8889,-90.5 449,-90.5"/>
<polygon fill="#000000" stroke="#000000" points="392.1177,-308.9699 401.3115,-314.947 397.0589,-309.735 402,-310.5 402,-310.5 402,-310.5 397.0589,-309.735 402.6885,-306.053 392.1177,-308.9699 392.1177,-308.9699"/>
<text text-anchor="start" x="408.602" y="-320.5" font-family="Arial" font-size="10.00" fill="#000000">FOREIGN KEY (example_schema_id) REFERENCES bar.example(id)</text>
</g>
</g>
</svg>
