<?xml version="1.0" encoding="UTF-8" standalone="no"?>
<!DOCTYPE svg PUBLIC "-//W3C//DTD SVG 1.1//EN"
 "http://www.w3.org/Graphics/SVG/1.1/DTD/svg11.dtd">
<!-- Generated by graphviz version 2.40.1 (20161225.0304)
 -->
<!-- Title: example2_schema.example Pages: 1 -->
<svg width="510pt" height="442pt"
 viewBox="0.00 0.00 509.50 442.00" xmlns="http://www.w3.org/2000/svg" xmlns:xlink="http://www.w3.org/1999/xlink">
<g id="graph0" class="graph" transform="scale(1 1) rotate(0) translate(4 438)">
<title>example2_schema.example</title>
<polygon fill="#ffffff" stroke="transparent" points="-4,4 -4,-438 505.5,-438 505.5,4 -4,4"/>
<!-- example2_schema.example -->
<g id="node1" class="node">
<title>example2_schema.example</title>
<polygon fill="#efefef" stroke="transparent" points="53.5,-105.5 53.5,-140.5 388.5,-140.5 388.5,-105.5 53.5,-105.5"/>
<polygon fill="none" stroke="#000000" points="53.5,-105.5 53.5,-140.5 388.5,-140.5 388.5,-105.5 53.5,-105.5"/>
<text text-anchor="start" x="60.3492" y="-118.3" font-family="Arial Bold" font-size="18.00" fill="#000000">example2_schema.example</text>
<text text-anchor="start" x="284.397" y="-118.3" font-family="Arial" font-size="14.00" fill="#000000"> </text>
<text text-anchor="start" x="288.2876" y="-118.3" font-family="Arial" font-size="14.00" fill="#666666">[BASE TABLE]</text>
<polygon fill="none" stroke="#000000" points="53.5,-75.5 53.5,-105.5 388.5,-105.5 388.5,-75.5 53.5,-75.5"/>
<text text-anchor="start" x="60.5" y="-86.9" font-family="Arial" font-size="14.00" fill="#000000">id </text>
<text text-anchor="start" x="75.2798" y="-86.9" font-family="Arial" font-size="14.00" fill="#666666">[integer]</text>
<polygon fill="none" stroke="#000000" points="53.5,-45.5 53.5,-75.5 388.5,-75.5 388.5,-45.5 53.5,-45.5"/>
<text text-anchor="start" x="60.5" y="-56.9" font-family="Arial" font-size="14.00" fill="#000000">name </text>
<text text-anchor="start" x="99.399" y="-56.9" font-family="Arial" font-size="14.00" fill="#666666">[varchar(255)]</text>
<polygon fill="none" stroke="#000000" stroke-width="3" points="51.5,-44.5 51.5,-142.5 389.5,-142.5 389.5,-44.5 51.5,-44.5"/>
</g>
<!-- example2_schema.example_2 -->
<g id="node2" class="node">
<title>example2_schema.example_2</title>
<polygon fill="#efefef" stroke="transparent" points="43.5,-355.5 43.5,-390.5 398.5,-390.5 398.5,-355.5 43.5,-355.5"/>
<polygon fill="none" stroke="#000000" points="43.5,-355.5 43.5,-390.5 398.5,-390.5 398.5,-355.5 43.5,-355.5"/>
<text text-anchor="start" x="50.343" y="-368.3" font-family="Arial Bold" font-size="18.00" fill="#000000">example2_schema.example_2</text>
<text text-anchor="start" x="294.4032" y="-368.3" font-family="Arial" font-size="14.00" fill="#000000"> </text>
<text text-anchor="start" x="298.2938" y="-368.3" font-family="Arial" font-size="14.00" fill="#666666">[BASE TABLE]</text>
<polygon fill="none" stroke="#000000" points="43.5,-325.5 43.5,-355.5 398.5,-355.5 398.5,-325.5 43.5,-325.5"/>
<text text-anchor="start" x="50.5" y="-336.9" font-family="Arial" font-size="14.00" fill="#000000">id </text>
<text text-anchor="start" x="65.2798" y="-336.9" font-family="Arial" font-size="14.00" fill="#666666">[integer]</text>
<polygon fill="none" stroke="#000000" points="43.5,-295.5 43.5,-325.5 398.5,-325.5 398.5,-295.5 43.5,-295.5"/>
<text text-anchor="start" x="50.5" y="-306.9" font-family="Arial" font-size="14.00" fill="#000000">name </text>
<text text-anchor="start" x="89.399" y="-306.9" font-family="Arial" font-size="14.00" fill="#666666">[varchar(255)]</text>
<polygon fill="none" stroke="#000000" points="43.5,-265.5 43.5,-295.5 398.5,-295.5 398.5,-265.5 43.5,-265.5"/>
<text text-anchor="start" x="50.5" y="-276.9" font-family="Arial" font-size="14.00" fill="#000000">example_1_id </text>
<text text-anchor="start" x="141.5252" y="-276.9" font-family="Arial" font-size="14.00" fill="#666666">[integer]</text>
</g>
<!-- example2_schema.example_2&#45;&gt;example2_schema.example -->
<g id="edge1" class="edge">
<title>example2_schema.example_2:example_1_id&#45;&gt;example2_schema.example:id</title>
<path fill="none" stroke="#000000" d="M220.7693,-255.3097C210.5427,-189.3941 95.7667,-253.4028 53.5,-187 30.47,-150.8189 10.6111,-90.5 53.5,-90.5"/>
<polygon fill="#000000" stroke="#000000" points="220.7847,-255.5256 217.0115,-265.8219 221.1423,-260.5128 221.5,-265.5 221.5,-265.5 221.5,-265.5 221.1423,-260.5128 225.9885,-265.1781 220.7847,-255.5256 220.7847,-255.5256"/>
<text text-anchor="start" x="228.4385" y="-275.5" font-family="Arial" font-size="10.00" fill="#000000">FOREIGN KEY (example_1_id) REFERENCES example(id)</text>
</g>
</g>
</svg>
