<?xml version="1.0" encoding="UTF-8" standalone="no"?>
<!DOCTYPE svg PUBLIC "-//W3C//DTD SVG 1.1//EN"
 "http://www.w3.org/Graphics/SVG/1.1/DTD/svg11.dtd">
<!-- Generated by graphviz version 2.40.1 (20161225.0304)
 -->
<!-- Title: example2_schema.example_2 Pages: 1 -->
<svg width="513pt" height="442pt"
 viewBox="0.00 0.00 512.50 442.00" xmlns="http://www.w3.org/2000/svg" xmlns:xlink="http://www.w3.org/1999/xlink">
<g id="graph0" class="graph" transform="scale(1 1) rotate(0) translate(4 438)">
<title>example2_schema.example_2</title>
<polygon fill="#ffffff" stroke="transparent" points="-4,4 -4,-438 508.5,-438 508.5,4 -4,4"/>
<!-- example2_schema.example_2 -->
<g id="node1" class="node">
<title>example2_schema.example_2</title>
<polygon fill="#efefef" stroke="transparent" points="46.5,-352.5 46.5,-387.5 401.5,-387.5 401.5,-352.5 46.5,-352.5"/>
<polygon fill="none" stroke="#000000" points="46.5,-352.5 46.5,-387.5 401.5,-387.5 401.5,-352.5 46.5,-352.5"/>
<text text-anchor="start" x="53.343" y="-365.3" font-family="Arial Bold" font-size="18.00" fill="#000000">example2_schema.example_2</text>
<text text-anchor="start" x="297.4032" y="-365.3" font-family="Arial" font-size="14.00" fill="#000000"> </text>
<text text-anchor="start" x="301.2938" y="-365.3" font-family="Arial" font-size="14.00" fill="#666666">[BASE TABLE]</text>
<polygon fill="none" stroke="#000000" points="46.5,-322.5 46.5,-352.5 401.5,-352.5 401.5,-322.5 46.5,-322.5"/>
<text text-anchor="start" x="53.5" y="-333.9" font-family="Arial" font-size="14.00" fill="#000000">id </text>
<text text-anchor="start" x="68.2798" y="-333.9" font-family="Arial" font-size="14.00" fill="#666666">[integer]</text>
<polygon fill="none" stroke="#000000" points="46.5,-292.5 46.5,-322.5 401.5,-322.5 401.5,-292.5 46.5,-292.5"/>
<text text-anchor="start" x="53.5" y="-303.9" font-family="Arial" font-size="14.00" fill="#000000">name </text>
<text text-anchor="start" x="92.399" y="-303.9" font-family="Arial" font-size="14.00" fill="#666666">[varchar(255)]</text>
<polygon fill="none" stroke="#000000" points="46.5,-262.5 46.5,-292.5 401.5,-292.5 401.5,-262.5 46.5,-262.5"/>
<text text-anchor="start" x="53.5" y="-273.9" font-family="Arial" font-size="14.00" fill="#000000">example_1_id </text>
<text text-anchor="start" x="144.5252" y="-273.9" font-family="Arial" font-size="14.00" fill="#666666">[integer]</text>
<polygon fill="none" stroke="#000000" stroke-width="3" points="44.5,-261.5 44.5,-389.5 402.5,-389.5 402.5,-261.5 44.5,-261.5"/>
</g>
<!-- example2_schema.example -->
<g id="node2" class="node">
<title>example2_schema.example</title>
<polygon fill="#efefef" stroke="transparent" points="56.5,-102.5 56.5,-137.5 391.5,-137.5 391.5,-102.5 56.5,-102.5"/>
<polygon fill="none" stroke="#000000" points="56.5,-102.5 56.5,-137.5 391.5,-137.5 391.5,-102.5 56.5,-102.5"/>
<text text-anchor="start" x="63.3492" y="-115.3" font-family="Arial Bold" font-size="18.00" fill="#000000">example2_schema.example</text>
<text text-anchor="start" x="287.397" y="-115.3" font-family="Arial" font-size="14.00" fill="#000000"> </text>
<text text-anchor="start" x="291.2876" y="-115.3" font-family="Arial" font-size="14.00" fill="#666666">[BASE TABLE]</text>
<polygon fill="none" stroke="#000000" points="56.5,-72.5 56.5,-102.5 391.5,-102.5 391.5,-72.5 56.5,-72.5"/>
<text text-anchor="start" x="63.5" y="-83.9" font-family="Arial" font-size="14.00" fill="#000000">id </text>
<text text-anchor="start" x="78.2798" y="-83.9" font-family="Arial" font-size="14.00" fill="#666666">[integer]</text>
<polygon fill="none" stroke="#000000" points="56.5,-42.5 56.5,-72.5 391.5,-72.5 391.5,-42.5 56.5,-42.5"/>
<text text-anchor="start" x="63.5" y="-53.9" font-family="Arial" font-size="14.00" fill="#000000">name </text>
<text text-anchor="start" x="102.399" y="-53.9" font-family="Arial" font-size="14.00" fill="#666666">[varchar(255)]</text>
</g>
<!-- example2_schema.example_2&#45;&gt;example2_schema.example -->
<g id="edge1" class="edge">
<title>example2_schema.example_2:example_1_id&#45;&gt;example2_schema.example:id</title>
<path fill="none" stroke="#000000" d="M223.7681,-252.2262C213.5253,-185.6769 98.5729,-248.1726 56.5,-181 34.4417,-145.7822 14.9444,-87.5 56.5,-87.5"/>
<polygon fill="#000000" stroke="#000000" points="223.7893,-252.5253 220.0114,-262.8198 224.1447,-257.5126 224.5,-262.5 224.5,-262.5 224.5,-262.5 224.1447,-257.5126 228.9886,-262.1802 223.7893,-252.5253 223.7893,-252.5253"/>
<text text-anchor="start" x="231.4385" y="-272.5" font-family="Arial" font-size="10.00" fill="#000000">FOREIGN KEY (example_1_id) REFERENCES example(id)</text>
</g>
</g>
</svg>
