<?xml version="1.0" encoding="UTF-8" standalone="no"?>
<!DOCTYPE svg PUBLIC "-//W3C//DTD SVG 1.1//EN"
 "http://www.w3.org/Graphics/SVG/1.1/DTD/svg11.dtd">
<!-- Generated by graphviz version 2.40.1 (20161225.0304)
 -->
<!-- Title: db&#45;example Pages: 1 -->
<svg width="1037pt" height="436pt"
 viewBox="0.00 0.00 1036.50 436.00" xmlns="http://www.w3.org/2000/svg" xmlns:xlink="http://www.w3.org/1999/xlink">
<g id="graph0" class="graph" transform="scale(1 1) rotate(0) translate(4 432)">
<title>db&#45;example</title>
<polygon fill="#ffffff" stroke="transparent" points="-4,4 -4,-432 1032.5,-432 1032.5,4 -4,4"/>
<!-- example2_schema.schema_migrations -->
<g id="node1" class="node">
<title>example2_schema.schema_migrations</title>
<polygon fill="#efefef" stroke="transparent" points="43.5,-334.5 43.5,-369.5 466.5,-369.5 466.5,-334.5 43.5,-334.5"/>
<polygon fill="none" stroke="#000000" points="43.5,-334.5 43.5,-369.5 466.5,-369.5 466.5,-334.5 43.5,-334.5"/>
<text text-anchor="start" x="50.3464" y="-347.3" font-family="Arial Bold" font-size="18.00" fill="#000000">example2_schema.schema_migrations</text>
<text text-anchor="start" x="362.3998" y="-347.3" font-family="Arial" font-size="14.00" fill="#000000"> </text>
<text text-anchor="start" x="366.2904" y="-347.3" font-family="Arial" font-size="14.00" fill="#666666">[BASE TABLE]</text>
<polygon fill="none" stroke="#000000" points="43.5,-304.5 43.5,-334.5 466.5,-334.5 466.5,-304.5 43.5,-304.5"/>
<text text-anchor="start" x="50.5" y="-315.9" font-family="Arial" font-size="14.00" fill="#000000">version </text>
<text text-anchor="start" x="99.5056" y="-315.9" font-family="Arial" font-size="14.00" fill="#666666">[bigint]</text>
<polygon fill="none" stroke="#000000" points="43.5,-274.5 43.5,-304.5 466.5,-304.5 466.5,-274.5 43.5,-274.5"/>
<text text-anchor="start" x="50.5" y="-285.9" font-family="Arial" font-size="14.00" fill="#000000">dirty </text>
<text text-anchor="start" x="80.831" y="-285.9" font-family="Arial" font-size="14.00" fill="#666666">[boolean]</text>
</g>
<!-- example2_schema.example -->
<g id="node2" class="node">
<title>example2_schema.example</title>
<polygon fill="#efefef" stroke="transparent" points="580.5,-102.5 580.5,-137.5 915.5,-137.5 915.5,-102.5 580.5,-102.5"/>
<polygon fill="none" stroke="#000000" points="580.5,-102.5 580.5,-137.5 915.5,-137.5 915.5,-102.5 580.5,-102.5"/>
<text text-anchor="start" x="587.3492" y="-115.3" font-family="Arial Bold" font-size="18.00" fill="#000000">example2_schema.example</text>
<text text-anchor="start" x="811.397" y="-115.3" font-family="Arial" font-size="14.00" fill="#000000"> </text>
<text text-anchor="start" x="815.2876" y="-115.3" font-family="Arial" font-size="14.00" fill="#666666">[BASE TABLE]</text>
<polygon fill="none" stroke="#000000" points="580.5,-72.5 580.5,-102.5 915.5,-102.5 915.5,-72.5 580.5,-72.5"/>
<text text-anchor="start" x="587.5" y="-83.9" font-family="Arial" font-size="14.00" fill="#000000">id </text>
<text text-anchor="start" x="602.2798" y="-83.9" font-family="Arial" font-size="14.00" fill="#666666">[integer]</text>
<polygon fill="none" stroke="#000000" points="580.5,-42.5 580.5,-72.5 915.5,-72.5 915.5,-42.5 580.5,-42.5"/>
<text text-anchor="start" x="587.5" y="-53.9" font-family="Arial" font-size="14.00" fill="#000000">name </text>
<text text-anchor="start" x="626.399" y="-53.9" font-family="Arial" font-size="14.00" fill="#666666">[varchar(255)]</text>
</g>
<!-- example2_schema.example_2 -->
<g id="node3" class="node">
<title>example2_schema.example_2</title>
<polygon fill="#efefef" stroke="transparent" points="570.5,-349.5 570.5,-384.5 925.5,-384.5 925.5,-349.5 570.5,-349.5"/>
<polygon fill="none" stroke="#000000" points="570.5,-349.5 570.5,-384.5 925.5,-384.5 925.5,-349.5 570.5,-349.5"/>
<text text-anchor="start" x="577.343" y="-362.3" font-family="Arial Bold" font-size="18.00" fill="#000000">example2_schema.example_2</text>
<text text-anchor="start" x="821.4032" y="-362.3" font-family="Arial" font-size="14.00" fill="#000000"> </text>
<text text-anchor="start" x="825.2938" y="-362.3" font-family="Arial" font-size="14.00" fill="#666666">[BASE TABLE]</text>
<polygon fill="none" stroke="#000000" points="570.5,-319.5 570.5,-349.5 925.5,-349.5 925.5,-319.5 570.5,-319.5"/>
<text text-anchor="start" x="577.5" y="-330.9" font-family="Arial" font-size="14.00" fill="#000000">id </text>
<text text-anchor="start" x="592.2798" y="-330.9" font-family="Arial" font-size="14.00" fill="#666666">[integer]</text>
<polygon fill="none" stroke="#000000" points="570.5,-289.5 570.5,-319.5 925.5,-319.5 925.5,-289.5 570.5,-289.5"/>
<text text-anchor="start" x="577.5" y="-300.9" font-family="Arial" font-size="14.00" fill="#000000">name </text>
<text text-anchor="start" x="616.399" y="-300.9" font-family="Arial" font-size="14.00" fill="#666666">[varchar(255)]</text>
<polygon fill="none" stroke="#000000" points="570.5,-259.5 570.5,-289.5 925.5,-289.5 925.5,-259.5 570.5,-259.5"/>
<text text-anchor="start" x="577.5" y="-270.9" font-family="Arial" font-size="14.00" fill="#000000">example_1_id </text>
<text text-anchor="start" x="668.5252" y="-270.9" font-family="Arial" font-size="14.00" fill="#666666">[integer]</text>
</g>
<!-- example2_schema.example_2&#45;&gt;example2_schema.example -->
<g id="edge1" class="edge">
<title>example2_schema.example_2:example_1_id&#45;&gt;example2_schema.example:id</title>
<path fill="none" stroke="#000000" d="M747.7693,-249.3097C737.5427,-183.3941 622.7667,-247.4028 580.5,-181 558.1859,-145.9437 538.9444,-87.5 580.5,-87.5"/>
<polygon fill="#000000" stroke="#000000" points="747.7847,-249.5256 744.0115,-259.8219 748.1423,-254.5128 748.5,-259.5 748.5,-259.5 748.5,-259.5 748.1423,-254.5128 752.9885,-259.1781 747.7847,-249.5256 747.7847,-249.5256"/>
<text text-anchor="start" x="755.4385" y="-269.5" font-family="Arial" font-size="10.00" fill="#000000">FOREIGN KEY (example_1_id) REFERENCES example(id)</text>
</g>
</g>
</svg>
