<?xml version="1.0" encoding="UTF-8" standalone="no"?>
<!DOCTYPE svg PUBLIC "-//W3C//DTD SVG 1.1//EN"
 "http://www.w3.org/Graphics/SVG/1.1/DTD/svg11.dtd">
<!-- Generated by graphviz version 2.40.1 (20161225.0304)
 -->
<!-- Title: bar.example_2 Pages: 1 -->
<svg width="466pt" height="442pt"
 viewBox="0.00 0.00 466.00 442.00" xmlns="http://www.w3.org/2000/svg" xmlns:xlink="http://www.w3.org/1999/xlink">
<g id="graph0" class="graph" transform="scale(1 1) rotate(0) translate(4 438)">
<title>bar.example_2</title>
<polygon fill="#ffffff" stroke="transparent" points="-4,4 -4,-438 462,-438 462,4 -4,4"/>
<!-- bar.example_2 -->
<g id="node1" class="node">
<title>bar.example_2</title>
<polygon fill="#efefef" stroke="transparent" points="182,-352.5 182,-387.5 412,-387.5 412,-352.5 182,-352.5"/>
<polygon fill="none" stroke="#000000" points="182,-352.5 182,-387.5 412,-387.5 412,-352.5 182,-352.5"/>
<text text-anchor="start" x="188.8579" y="-365.3" font-family="Arial Bold" font-size="18.00" fill="#000000">bar.example_2</text>
<text text-anchor="start" x="307.8883" y="-365.3" font-family="Arial" font-size="14.00" fill="#000000"> </text>
<text text-anchor="start" x="311.7789" y="-365.3" font-family="Arial" font-size="14.00" fill="#666666">[BASE TABLE]</text>
<polygon fill="none" stroke="#000000" points="182,-322.5 182,-352.5 412,-352.5 412,-322.5 182,-322.5"/>
<text text-anchor="start" x="189" y="-333.9" font-family="Arial" font-size="14.00" fill="#000000">id </text>
<text text-anchor="start" x="203.7798" y="-333.9" font-family="Arial" font-size="14.00" fill="#666666">[integer]</text>
<polygon fill="none" stroke="#000000" points="182,-292.5 182,-322.5 412,-322.5 412,-292.5 182,-292.5"/>
<text text-anchor="start" x="189" y="-303.9" font-family="Arial" font-size="14.00" fill="#000000">name </text>
<text text-anchor="start" x="227.899" y="-303.9" font-family="Arial" font-size="14.00" fill="#666666">[varchar(255)]</text>
<polygon fill="none" stroke="#000000" points="182,-262.5 182,-292.5 412,-292.5 412,-262.5 182,-262.5"/>
<text text-anchor="start" x="189" y="-273.9" font-family="Arial" font-size="14.00" fill="#000000">example_1_id </text>
<text text-anchor="start" x="280.0252" y="-273.9" font-family="Arial" font-size="14.00" fill="#666666">[integer]</text>
<polygon fill="none" stroke="#000000" stroke-width="3" points="180.5,-261.5 180.5,-389.5 413.5,-389.5 413.5,-261.5 180.5,-261.5"/>
</g>
<!-- bar.example -->
<g id="node2" class="node">
<title>bar.example</title>
<polygon fill="#efefef" stroke="transparent" points="192,-102.5 192,-137.5 402,-137.5 402,-102.5 192,-102.5"/>
<polygon fill="none" stroke="#000000" points="192,-102.5 192,-137.5 402,-137.5 402,-102.5 192,-102.5"/>
<text text-anchor="start" x="198.8641" y="-115.3" font-family="Arial Bold" font-size="18.00" fill="#000000">bar.example</text>
<text text-anchor="start" x="297.8821" y="-115.3" font-family="Arial" font-size="14.00" fill="#000000"> </text>
<text text-anchor="start" x="301.7727" y="-115.3" font-family="Arial" font-size="14.00" fill="#666666">[BASE TABLE]</text>
<polygon fill="none" stroke="#000000" points="192,-72.5 192,-102.5 402,-102.5 402,-72.5 192,-72.5"/>
<text text-anchor="start" x="199" y="-83.9" font-family="Arial" font-size="14.00" fill="#000000">id </text>
<text text-anchor="start" x="213.7798" y="-83.9" font-family="Arial" font-size="14.00" fill="#666666">[integer]</text>
<polygon fill="none" stroke="#000000" points="192,-42.5 192,-72.5 402,-72.5 402,-42.5 192,-42.5"/>
<text text-anchor="start" x="199" y="-53.9" font-family="Arial" font-size="14.00" fill="#000000">name </text>
<text text-anchor="start" x="237.899" y="-53.9" font-family="Arial" font-size="14.00" fill="#666666">[varchar(255)]</text>
</g>
<!-- bar.example_2&#45;&gt;bar.example -->
<g id="edge1" class="edge">
<title>bar.example_2:example_1_id&#45;&gt;bar.example:id</title>
<path fill="none" stroke="#000000" d="M297.8938,-252.4324C306.6702,-206.9271 377.643,-230.739 402,-181 420.276,-143.6791 443.5556,-87.5 402,-87.5"/>
<polygon fill="#000000" stroke="#000000" points="297.8844,-252.5392 292.5176,-262.102 297.4422,-257.5196 297,-262.5 297,-262.5 297,-262.5 297.4422,-257.5196 301.4824,-262.898 297.8844,-252.5392 297.8844,-252.5392"/>
<text text-anchor="start" x="7.3255" y="-272.5" font-family="Arial" font-size="10.00" fill="#000000">FOREIGN KEY (example_1_id) REFERENCES bar.example(id)</text>
</g>
</g>
</svg>
