<?xml version="1.0" encoding="UTF-8" standalone="no"?>
<!DOCTYPE svg PUBLIC "-//W3C//DTD SVG 1.1//EN"
 "http://www.w3.org/Graphics/SVG/1.1/DTD/svg11.dtd">
<!-- Generated by graphviz version 2.40.1 (20161225.0304)
 -->
<!-- Title: bar.example Pages: 1 -->
<svg width="463pt" height="442pt"
 viewBox="0.00 0.00 463.00 442.00" xmlns="http://www.w3.org/2000/svg" xmlns:xlink="http://www.w3.org/1999/xlink">
<g id="graph0" class="graph" transform="scale(1 1) rotate(0) translate(4 438)">
<title>bar.example</title>
<polygon fill="#ffffff" stroke="transparent" points="-4,4 -4,-438 459,-438 459,4 -4,4"/>
<!-- bar.example -->
<g id="node1" class="node">
<title>bar.example</title>
<polygon fill="#efefef" stroke="transparent" points="192,-105.5 192,-140.5 402,-140.5 402,-105.5 192,-105.5"/>
<polygon fill="none" stroke="#000000" points="192,-105.5 192,-140.5 402,-140.5 402,-105.5 192,-105.5"/>
<text text-anchor="start" x="198.8641" y="-118.3" font-family="Arial Bold" font-size="18.00" fill="#000000">bar.example</text>
<text text-anchor="start" x="297.8821" y="-118.3" font-family="Arial" font-size="14.00" fill="#000000"> </text>
<text text-anchor="start" x="301.7727" y="-118.3" font-family="Arial" font-size="14.00" fill="#666666">[BASE TABLE]</text>
<polygon fill="none" stroke="#000000" points="192,-75.5 192,-105.5 402,-105.5 402,-75.5 192,-75.5"/>
<text text-anchor="start" x="199" y="-86.9" font-family="Arial" font-size="14.00" fill="#000000">id </text>
<text text-anchor="start" x="213.7798" y="-86.9" font-family="Arial" font-size="14.00" fill="#666666">[integer]</text>
<polygon fill="none" stroke="#000000" points="192,-45.5 192,-75.5 402,-75.5 402,-45.5 192,-45.5"/>
<text text-anchor="start" x="199" y="-56.9" font-family="Arial" font-size="14.00" fill="#000000">name </text>
<text text-anchor="start" x="237.899" y="-56.9" font-family="Arial" font-size="14.00" fill="#666666">[varchar(255)]</text>
<polygon fill="none" stroke="#000000" stroke-width="3" points="190.5,-44.5 190.5,-142.5 403.5,-142.5 403.5,-44.5 190.5,-44.5"/>
</g>
<!-- bar.example_2 -->
<g id="node2" class="node">
<title>bar.example_2</title>
<polygon fill="#efefef" stroke="transparent" points="182,-355.5 182,-390.5 412,-390.5 412,-355.5 182,-355.5"/>
<polygon fill="none" stroke="#000000" points="182,-355.5 182,-390.5 412,-390.5 412,-355.5 182,-355.5"/>
<text text-anchor="start" x="188.8579" y="-368.3" font-family="Arial Bold" font-size="18.00" fill="#000000">bar.example_2</text>
<text text-anchor="start" x="307.8883" y="-368.3" font-family="Arial" font-size="14.00" fill="#000000"> </text>
<text text-anchor="start" x="311.7789" y="-368.3" font-family="Arial" font-size="14.00" fill="#666666">[BASE TABLE]</text>
<polygon fill="none" stroke="#000000" points="182,-325.5 182,-355.5 412,-355.5 412,-325.5 182,-325.5"/>
<text text-anchor="start" x="189" y="-336.9" font-family="Arial" font-size="14.00" fill="#000000">id </text>
<text text-anchor="start" x="203.7798" y="-336.9" font-family="Arial" font-size="14.00" fill="#666666">[integer]</text>
<polygon fill="none" stroke="#000000" points="182,-295.5 182,-325.5 412,-325.5 412,-295.5 182,-295.5"/>
<text text-anchor="start" x="189" y="-306.9" font-family="Arial" font-size="14.00" fill="#000000">name </text>
<text text-anchor="start" x="227.899" y="-306.9" font-family="Arial" font-size="14.00" fill="#666666">[varchar(255)]</text>
<polygon fill="none" stroke="#000000" points="182,-265.5 182,-295.5 412,-295.5 412,-265.5 182,-265.5"/>
<text text-anchor="start" x="189" y="-276.9" font-family="Arial" font-size="14.00" fill="#000000">example_1_id </text>
<text text-anchor="start" x="280.0252" y="-276.9" font-family="Arial" font-size="14.00" fill="#666666">[integer]</text>
</g>
<!-- bar.example_2&#45;&gt;bar.example -->
<g id="edge1" class="edge">
<title>bar.example_2:example_1_id&#45;&gt;bar.example:id</title>
<path fill="none" stroke="#000000" d="M297.9481,-255.3102C306.9517,-210.9917 377.5846,-235.7377 402,-187 421.2097,-148.6537 444.8889,-90.5 402,-90.5"/>
<polygon fill="#000000" stroke="#000000" points="297.9265,-255.543 292.5194,-265.0831 297.4632,-260.5215 297,-265.5 297,-265.5 297,-265.5 297.4632,-260.5215 301.4806,-265.9169 297.9265,-255.543 297.9265,-255.543"/>
<text text-anchor="start" x="7.3255" y="-275.5" font-family="Arial" font-size="10.00" fill="#000000">FOREIGN KEY (example_1_id) REFERENCES bar.example(id)</text>
</g>
</g>
</svg>
