<?xml version="1.0" encoding="UTF-8" standalone="no"?>
<!DOCTYPE svg PUBLIC "-//W3C//DTD SVG 1.1//EN"
 "http://www.w3.org/Graphics/SVG/1.1/DTD/svg11.dtd">
<!-- Generated by graphviz version 2.40.1 (20161225.0304)
 -->
<!-- Title: db&#45;example Pages: 1 -->
<svg width="865pt" height="436pt"
 viewBox="0.00 0.00 865.00 436.00" xmlns="http://www.w3.org/2000/svg" xmlns:xlink="http://www.w3.org/1999/xlink">
<g id="graph0" class="graph" transform="scale(1 1) rotate(0) translate(4 432)">
<title>db&#45;example</title>
<polygon fill="#ffffff" stroke="transparent" points="-4,4 -4,-432 861,-432 861,4 -4,4"/>
<!-- bar.schema_migrations -->
<g id="node1" class="node">
<title>bar.schema_migrations</title>
<polygon fill="#efefef" stroke="transparent" points="43,-334.5 43,-369.5 341,-369.5 341,-334.5 43,-334.5"/>
<polygon fill="none" stroke="#000000" points="43,-334.5 43,-369.5 341,-369.5 341,-334.5 43,-334.5"/>
<text text-anchor="start" x="49.8613" y="-347.3" font-family="Arial Bold" font-size="18.00" fill="#000000">bar.schema_migrations</text>
<text text-anchor="start" x="236.8849" y="-347.3" font-family="Arial" font-size="14.00" fill="#000000"> </text>
<text text-anchor="start" x="240.7755" y="-347.3" font-family="Arial" font-size="14.00" fill="#666666">[BASE TABLE]</text>
<polygon fill="none" stroke="#000000" points="43,-304.5 43,-334.5 341,-334.5 341,-304.5 43,-304.5"/>
<text text-anchor="start" x="50" y="-315.9" font-family="Arial" font-size="14.00" fill="#000000">version </text>
<text text-anchor="start" x="99.0056" y="-315.9" font-family="Arial" font-size="14.00" fill="#666666">[bigint]</text>
<polygon fill="none" stroke="#000000" points="43,-274.5 43,-304.5 341,-304.5 341,-274.5 43,-274.5"/>
<text text-anchor="start" x="50" y="-285.9" font-family="Arial" font-size="14.00" fill="#000000">dirty </text>
<text text-anchor="start" x="80.331" y="-285.9" font-family="Arial" font-size="14.00" fill="#666666">[boolean]</text>
</g>
<!-- bar.example -->
<g id="node2" class="node">
<title>bar.example</title>
<polygon fill="#efefef" stroke="transparent" points="455,-102.5 455,-137.5 665,-137.5 665,-102.5 455,-102.5"/>
<polygon fill="none" stroke="#000000" points="455,-102.5 455,-137.5 665,-137.5 665,-102.5 455,-102.5"/>
<text text-anchor="start" x="461.8641" y="-115.3" font-family="Arial Bold" font-size="18.00" fill="#000000">bar.example</text>
<text text-anchor="start" x="560.8821" y="-115.3" font-family="Arial" font-size="14.00" fill="#000000"> </text>
<text text-anchor="start" x="564.7727" y="-115.3" font-family="Arial" font-size="14.00" fill="#666666">[BASE TABLE]</text>
<polygon fill="none" stroke="#000000" points="455,-72.5 455,-102.5 665,-102.5 665,-72.5 455,-72.5"/>
<text text-anchor="start" x="462" y="-83.9" font-family="Arial" font-size="14.00" fill="#000000">id </text>
<text text-anchor="start" x="476.7798" y="-83.9" font-family="Arial" font-size="14.00" fill="#666666">[integer]</text>
<polygon fill="none" stroke="#000000" points="455,-42.5 455,-72.5 665,-72.5 665,-42.5 455,-42.5"/>
<text text-anchor="start" x="462" y="-53.9" font-family="Arial" font-size="14.00" fill="#000000">name </text>
<text text-anchor="start" x="500.899" y="-53.9" font-family="Arial" font-size="14.00" fill="#666666">[varchar(255)]</text>
</g>
<!-- bar.example_2 -->
<g id="node3" class="node">
<title>bar.example_2</title>
<polygon fill="#efefef" stroke="transparent" points="445,-349.5 445,-384.5 675,-384.5 675,-349.5 445,-349.5"/>
<polygon fill="none" stroke="#000000" points="445,-349.5 445,-384.5 675,-384.5 675,-349.5 445,-349.5"/>
<text text-anchor="start" x="451.8579" y="-362.3" font-family="Arial Bold" font-size="18.00" fill="#000000">bar.example_2</text>
<text text-anchor="start" x="570.8883" y="-362.3" font-family="Arial" font-size="14.00" fill="#000000"> </text>
<text text-anchor="start" x="574.7789" y="-362.3" font-family="Arial" font-size="14.00" fill="#666666">[BASE TABLE]</text>
<polygon fill="none" stroke="#000000" points="445,-319.5 445,-349.5 675,-349.5 675,-319.5 445,-319.5"/>
<text text-anchor="start" x="452" y="-330.9" font-family="Arial" font-size="14.00" fill="#000000">id </text>
<text text-anchor="start" x="466.7798" y="-330.9" font-family="Arial" font-size="14.00" fill="#666666">[integer]</text>
<polygon fill="none" stroke="#000000" points="445,-289.5 445,-319.5 675,-319.5 675,-289.5 445,-289.5"/>
<text text-anchor="start" x="452" y="-300.9" font-family="Arial" font-size="14.00" fill="#000000">name </text>
<text text-anchor="start" x="490.899" y="-300.9" font-family="Arial" font-size="14.00" fill="#666666">[varchar(255)]</text>
<polygon fill="none" stroke="#000000" points="445,-259.5 445,-289.5 675,-289.5 675,-259.5 445,-259.5"/>
<text text-anchor="start" x="452" y="-270.9" font-family="Arial" font-size="14.00" fill="#000000">example_1_id </text>
<text text-anchor="start" x="543.0252" y="-270.9" font-family="Arial" font-size="14.00" fill="#666666">[integer]</text>
</g>
<!-- bar.example_2&#45;&gt;bar.example -->
<g id="edge1" class="edge">
<title>bar.example_2:example_1_id&#45;&gt;bar.example:id</title>
<path fill="none" stroke="#000000" d="M560.9481,-249.3102C569.9517,-204.9917 640.5846,-229.7377 665,-181 683.6126,-143.8458 706.5556,-87.5 665,-87.5"/>
<polygon fill="#000000" stroke="#000000" points="560.9265,-249.543 555.5194,-259.0831 560.4632,-254.5215 560,-259.5 560,-259.5 560,-259.5 560.4632,-254.5215 564.4806,-259.9169 560.9265,-249.543 560.9265,-249.543"/>
<text text-anchor="start" x="567.3255" y="-269.5" font-family="Arial" font-size="10.00" fill="#000000">FOREIGN KEY (example_1_id) REFERENCES bar.example(id)</text>
</g>
</g>
</svg>
