<?xml version="1.0" encoding="UTF-8" standalone="no"?>
<!DOCTYPE svg PUBLIC "-//W3C//DTD SVG 1.1//EN"
 "http://www.w3.org/Graphics/SVG/1.1/DTD/svg11.dtd">
<!-- Generated by graphviz version 2.40.1 (20161225.0304)
 -->
<!-- Title: bar.example Pages: 1 -->
<svg width="695pt" height="442pt"
 viewBox="0.00 0.00 695.00 442.00" xmlns="http://www.w3.org/2000/svg" xmlns:xlink="http://www.w3.org/1999/xlink">
<g id="graph0" class="graph" transform="scale(1 1) rotate(0) translate(4 438)">
<title>bar.example</title>
<polygon fill="#ffffff" stroke="transparent" points="-4,4 -4,-438 691,-438 691,4 -4,4"/>
<!-- bar.example -->
<g id="node1" class="node">
<title>bar.example</title>
<polygon fill="#efefef" stroke="transparent" points="215,-105.5 215,-140.5 425,-140.5 425,-105.5 215,-105.5"/>
<polygon fill="none" stroke="#000000" points="215,-105.5 215,-140.5 425,-140.5 425,-105.5 215,-105.5"/>
<text text-anchor="start" x="221.8641" y="-118.3" font-family="Arial Bold" font-size="18.00" fill="#000000">bar.example</text>
<text text-anchor="start" x="320.8821" y="-118.3" font-family="Arial" font-size="14.00" fill="#000000"> </text>
<text text-anchor="start" x="324.7727" y="-118.3" font-family="Arial" font-size="14.00" fill="#666666">[BASE TABLE]</text>
<polygon fill="none" stroke="#000000" points="215,-75.5 215,-105.5 425,-105.5 425,-75.5 215,-75.5"/>
<text text-anchor="start" x="222" y="-86.9" font-family="Arial" font-size="14.00" fill="#000000">id </text>
<text text-anchor="start" x="236.7798" y="-86.9" font-family="Arial" font-size="14.00" fill="#666666">[integer]</text>
<polygon fill="none" stroke="#000000" points="215,-45.5 215,-75.5 425,-75.5 425,-45.5 215,-45.5"/>
<text text-anchor="start" x="222" y="-56.9" font-family="Arial" font-size="14.00" fill="#000000">name </text>
<text text-anchor="start" x="260.899" y="-56.9" font-family="Arial" font-size="14.00" fill="#666666">[varchar(255)]</text>
<polygon fill="none" stroke="#000000" stroke-width="3" points="213.5,-44.5 213.5,-142.5 426.5,-142.5 426.5,-44.5 213.5,-44.5"/>
</g>
<!-- bar.example_2 -->
<g id="node2" class="node">
<title>bar.example_2</title>
<polygon fill="#efefef" stroke="transparent" points="43,-355.5 43,-390.5 273,-390.5 273,-355.5 43,-355.5"/>
<polygon fill="none" stroke="#000000" points="43,-355.5 43,-390.5 273,-390.5 273,-355.5 43,-355.5"/>
<text text-anchor="start" x="49.8579" y="-368.3" font-family="Arial Bold" font-size="18.00" fill="#000000">bar.example_2</text>
<text text-anchor="start" x="168.8883" y="-368.3" font-family="Arial" font-size="14.00" fill="#000000"> </text>
<text text-anchor="start" x="172.7789" y="-368.3" font-family="Arial" font-size="14.00" fill="#666666">[BASE TABLE]</text>
<polygon fill="none" stroke="#000000" points="43,-325.5 43,-355.5 273,-355.5 273,-325.5 43,-325.5"/>
<text text-anchor="start" x="50" y="-336.9" font-family="Arial" font-size="14.00" fill="#000000">id </text>
<text text-anchor="start" x="64.7798" y="-336.9" font-family="Arial" font-size="14.00" fill="#666666">[integer]</text>
<polygon fill="none" stroke="#000000" points="43,-295.5 43,-325.5 273,-325.5 273,-295.5 43,-295.5"/>
<text text-anchor="start" x="50" y="-306.9" font-family="Arial" font-size="14.00" fill="#000000">name </text>
<text text-anchor="start" x="88.899" y="-306.9" font-family="Arial" font-size="14.00" fill="#666666">[varchar(255)]</text>
<polygon fill="none" stroke="#000000" points="43,-265.5 43,-295.5 273,-295.5 273,-265.5 43,-265.5"/>
<text text-anchor="start" x="50" y="-276.9" font-family="Arial" font-size="14.00" fill="#000000">example_1_id </text>
<text text-anchor="start" x="141.0252" y="-276.9" font-family="Arial" font-size="14.00" fill="#666666">[integer]</text>
</g>
<!-- bar.example_2&#45;&gt;bar.example -->
<g id="edge1" class="edge">
<title>bar.example_2:example_1_id&#45;&gt;bar.example:id</title>
<path fill="none" stroke="#000000" d="M282.9485,-277.6271C294.0623,-268.7904 283.288,-241.4943 273,-223 258.2511,-196.4865 229.7489,-213.5135 215,-187 194.1506,-149.5199 172.1111,-90.5 215,-90.5"/>
<polygon fill="#000000" stroke="#000000" points="282.6074,-277.7255 271.7515,-276.1767 277.8037,-279.1128 273,-280.5 273,-280.5 273,-280.5 277.8037,-279.1128 274.2485,-284.8233 282.6074,-277.7255 282.6074,-277.7255"/>
<text text-anchor="start" x="279.9385" y="-290.5" font-family="Arial" font-size="10.00" fill="#000000">FOREIGN KEY (example_1_id) REFERENCES example(id)</text>
</g>
<!-- foo.example -->
<g id="node3" class="node">
<title>foo.example</title>
<polygon fill="#efefef" stroke="transparent" points="378,-355.5 378,-390.5 587,-390.5 587,-355.5 378,-355.5"/>
<polygon fill="none" stroke="#000000" points="378,-355.5 378,-390.5 587,-390.5 587,-355.5 378,-355.5"/>
<text text-anchor="start" x="384.8591" y="-368.3" font-family="Arial Bold" font-size="18.00" fill="#000000">foo.example</text>
<text text-anchor="start" x="482.8871" y="-368.3" font-family="Arial" font-size="14.00" fill="#000000"> </text>
<text text-anchor="start" x="486.7777" y="-368.3" font-family="Arial" font-size="14.00" fill="#666666">[BASE TABLE]</text>
<polygon fill="none" stroke="#000000" points="378,-325.5 378,-355.5 587,-355.5 587,-325.5 378,-325.5"/>
<text text-anchor="start" x="385" y="-336.9" font-family="Arial" font-size="14.00" fill="#000000">id </text>
<text text-anchor="start" x="399.7798" y="-336.9" font-family="Arial" font-size="14.00" fill="#666666">[integer]</text>
<polygon fill="none" stroke="#000000" points="378,-295.5 378,-325.5 587,-325.5 587,-295.5 378,-295.5"/>
<text text-anchor="start" x="385" y="-306.9" font-family="Arial" font-size="14.00" fill="#000000">example_schema_id </text>
<text text-anchor="start" x="517.251" y="-306.9" font-family="Arial" font-size="14.00" fill="#666666">[integer]</text>
<polygon fill="none" stroke="#000000" points="378,-265.5 378,-295.5 587,-295.5 587,-265.5 378,-265.5"/>
<text text-anchor="start" x="385" y="-276.9" font-family="Arial" font-size="14.00" fill="#000000">name </text>
<text text-anchor="start" x="423.899" y="-276.9" font-family="Arial" font-size="14.00" fill="#666666">[varchar(255)]</text>
</g>
<!-- foo.example&#45;&gt;bar.example -->
<g id="edge2" class="edge">
<title>foo.example:example_schema_id&#45;&gt;bar.example:id</title>
<path fill="none" stroke="#000000" d="M367.957,-308.9451C343.4676,-299.9929 362.5333,-254.3294 378,-223 389.6479,-199.4061 413.3521,-210.5939 425,-187 443.9859,-148.5423 467.8889,-90.5 425,-90.5"/>
<polygon fill="#000000" stroke="#000000" points="368.1177,-308.9699 377.3115,-314.947 373.0589,-309.735 378,-310.5 378,-310.5 378,-310.5 373.0589,-309.735 378.6885,-306.053 368.1177,-308.9699 368.1177,-308.9699"/>
<text text-anchor="start" x="385.215" y="-320.5" font-family="Arial" font-size="10.00" fill="#000000">FOREIGN KEY (example_schema_id) REFERENCES example(id)</text>
</g>
</g>
</svg>
