<?xml version="1.0" encoding="UTF-8" standalone="no"?>
<!DOCTYPE svg PUBLIC "-//W3C//DTD SVG 1.1//EN"
 "http://www.w3.org/Graphics/SVG/1.1/DTD/svg11.dtd">
<!-- Generated by graphviz version 2.40.1 (20161225.0304)
 -->
<!-- Title: bar.example_2 Pages: 1 -->
<svg width="449pt" height="442pt"
 viewBox="0.00 0.00 449.00 442.00" xmlns="http://www.w3.org/2000/svg" xmlns:xlink="http://www.w3.org/1999/xlink">
<g id="graph0" class="graph" transform="scale(1 1) rotate(0) translate(4 438)">
<title>bar.example_2</title>
<polygon fill="#ffffff" stroke="transparent" points="-4,4 -4,-438 445,-438 445,4 -4,4"/>
<!-- bar.example_2 -->
<g id="node1" class="node">
<title>bar.example_2</title>
<polygon fill="#efefef" stroke="transparent" points="165,-352.5 165,-387.5 395,-387.5 395,-352.5 165,-352.5"/>
<polygon fill="none" stroke="#000000" points="165,-352.5 165,-387.5 395,-387.5 395,-352.5 165,-352.5"/>
<text text-anchor="start" x="171.8579" y="-365.3" font-family="Arial Bold" font-size="18.00" fill="#000000">bar.example_2</text>
<text text-anchor="start" x="290.8883" y="-365.3" font-family="Arial" font-size="14.00" fill="#000000"> </text>
<text text-anchor="start" x="294.7789" y="-365.3" font-family="Arial" font-size="14.00" fill="#666666">[BASE TABLE]</text>
<polygon fill="none" stroke="#000000" points="165,-322.5 165,-352.5 395,-352.5 395,-322.5 165,-322.5"/>
<text text-anchor="start" x="172" y="-333.9" font-family="Arial" font-size="14.00" fill="#000000">id </text>
<text text-anchor="start" x="186.7798" y="-333.9" font-family="Arial" font-size="14.00" fill="#666666">[integer]</text>
<polygon fill="none" stroke="#000000" points="165,-292.5 165,-322.5 395,-322.5 395,-292.5 165,-292.5"/>
<text text-anchor="start" x="172" y="-303.9" font-family="Arial" font-size="14.00" fill="#000000">name </text>
<text text-anchor="start" x="210.899" y="-303.9" font-family="Arial" font-size="14.00" fill="#666666">[varchar(255)]</text>
<polygon fill="none" stroke="#000000" points="165,-262.5 165,-292.5 395,-292.5 395,-262.5 165,-262.5"/>
<text text-anchor="start" x="172" y="-273.9" font-family="Arial" font-size="14.00" fill="#000000">example_1_id </text>
<text text-anchor="start" x="263.0252" y="-273.9" font-family="Arial" font-size="14.00" fill="#666666">[integer]</text>
<polygon fill="none" stroke="#000000" stroke-width="3" points="163.5,-261.5 163.5,-389.5 396.5,-389.5 396.5,-261.5 163.5,-261.5"/>
</g>
<!-- bar.example -->
<g id="node2" class="node">
<title>bar.example</title>
<polygon fill="#efefef" stroke="transparent" points="175,-102.5 175,-137.5 385,-137.5 385,-102.5 175,-102.5"/>
<polygon fill="none" stroke="#000000" points="175,-102.5 175,-137.5 385,-137.5 385,-102.5 175,-102.5"/>
<text text-anchor="start" x="181.8641" y="-115.3" font-family="Arial Bold" font-size="18.00" fill="#000000">bar.example</text>
<text text-anchor="start" x="280.8821" y="-115.3" font-family="Arial" font-size="14.00" fill="#000000"> </text>
<text text-anchor="start" x="284.7727" y="-115.3" font-family="Arial" font-size="14.00" fill="#666666">[BASE TABLE]</text>
<polygon fill="none" stroke="#000000" points="175,-72.5 175,-102.5 385,-102.5 385,-72.5 175,-72.5"/>
<text text-anchor="start" x="182" y="-83.9" font-family="Arial" font-size="14.00" fill="#000000">id </text>
<text text-anchor="start" x="196.7798" y="-83.9" font-family="Arial" font-size="14.00" fill="#666666">[integer]</text>
<polygon fill="none" stroke="#000000" points="175,-42.5 175,-72.5 385,-72.5 385,-42.5 175,-42.5"/>
<text text-anchor="start" x="182" y="-53.9" font-family="Arial" font-size="14.00" fill="#000000">name </text>
<text text-anchor="start" x="220.899" y="-53.9" font-family="Arial" font-size="14.00" fill="#666666">[varchar(255)]</text>
</g>
<!-- bar.example_2&#45;&gt;bar.example -->
<g id="edge1" class="edge">
<title>bar.example_2:example_1_id&#45;&gt;bar.example:id</title>
<path fill="none" stroke="#000000" d="M280.8938,-252.4324C289.6702,-206.9271 360.643,-230.739 385,-181 403.276,-143.6791 426.5556,-87.5 385,-87.5"/>
<polygon fill="#000000" stroke="#000000" points="280.8844,-252.5392 275.5176,-262.102 280.4422,-257.5196 280,-262.5 280,-262.5 280,-262.5 280.4422,-257.5196 284.4824,-262.898 280.8844,-252.5392 280.8844,-252.5392"/>
<text text-anchor="start" x="6.9385" y="-272.5" font-family="Arial" font-size="10.00" fill="#000000">FOREIGN KEY (example_1_id) REFERENCES example(id)</text>
</g>
</g>
</svg>
