<?xml version="1.0" encoding="UTF-8" standalone="no"?>
<!DOCTYPE svg PUBLIC "-//W3C//DTD SVG 1.1//EN"
 "http://www.w3.org/Graphics/SVG/1.1/DTD/svg11.dtd">
<!-- Generated by graphviz version 2.40.1 (20161225.0304)
 -->
<!-- Title: example_schema.example_2 Pages: 1 -->
<svg width="508pt" height="442pt"
 viewBox="0.00 0.00 507.50 442.00" xmlns="http://www.w3.org/2000/svg" xmlns:xlink="http://www.w3.org/1999/xlink">
<g id="graph0" class="graph" transform="scale(1 1) rotate(0) translate(4 438)">
<title>example_schema.example_2</title>
<polygon fill="#ffffff" stroke="transparent" points="-4,4 -4,-438 503.5,-438 503.5,4 -4,4"/>
<!-- example_schema.example_2 -->
<g id="node1" class="node">
<title>example_schema.example_2</title>
<polygon fill="#efefef" stroke="transparent" points="46.5,-352.5 46.5,-387.5 391.5,-387.5 391.5,-352.5 46.5,-352.5"/>
<polygon fill="none" stroke="#000000" points="46.5,-352.5 46.5,-387.5 391.5,-387.5 391.5,-352.5 46.5,-352.5"/>
<text text-anchor="start" x="53.3461" y="-365.3" font-family="Arial Bold" font-size="18.00" fill="#000000">example_schema.example_2</text>
<text text-anchor="start" x="287.4001" y="-365.3" font-family="Arial" font-size="14.00" fill="#000000"> </text>
<text text-anchor="start" x="291.2907" y="-365.3" font-family="Arial" font-size="14.00" fill="#666666">[BASE TABLE]</text>
<polygon fill="none" stroke="#000000" points="46.5,-322.5 46.5,-352.5 391.5,-352.5 391.5,-322.5 46.5,-322.5"/>
<text text-anchor="start" x="53.5" y="-333.9" font-family="Arial" font-size="14.00" fill="#000000">id </text>
<text text-anchor="start" x="68.2798" y="-333.9" font-family="Arial" font-size="14.00" fill="#666666">[integer]</text>
<polygon fill="none" stroke="#000000" points="46.5,-292.5 46.5,-322.5 391.5,-322.5 391.5,-292.5 46.5,-292.5"/>
<text text-anchor="start" x="53.5" y="-303.9" font-family="Arial" font-size="14.00" fill="#000000">name </text>
<text text-anchor="start" x="92.399" y="-303.9" font-family="Arial" font-size="14.00" fill="#666666">[varchar(255)]</text>
<polygon fill="none" stroke="#000000" points="46.5,-262.5 46.5,-292.5 391.5,-292.5 391.5,-262.5 46.5,-262.5"/>
<text text-anchor="start" x="53.5" y="-273.9" font-family="Arial" font-size="14.00" fill="#000000">example_1_id </text>
<text text-anchor="start" x="144.5252" y="-273.9" font-family="Arial" font-size="14.00" fill="#666666">[integer]</text>
<polygon fill="none" stroke="#000000" stroke-width="3" points="44.5,-261.5 44.5,-389.5 392.5,-389.5 392.5,-261.5 44.5,-261.5"/>
</g>
<!-- example_schema.example -->
<g id="node2" class="node">
<title>example_schema.example</title>
<polygon fill="#efefef" stroke="transparent" points="56.5,-102.5 56.5,-137.5 381.5,-137.5 381.5,-102.5 56.5,-102.5"/>
<polygon fill="none" stroke="#000000" points="56.5,-102.5 56.5,-137.5 381.5,-137.5 381.5,-102.5 56.5,-102.5"/>
<text text-anchor="start" x="63.3523" y="-115.3" font-family="Arial Bold" font-size="18.00" fill="#000000">example_schema.example</text>
<text text-anchor="start" x="277.3939" y="-115.3" font-family="Arial" font-size="14.00" fill="#000000"> </text>
<text text-anchor="start" x="281.2845" y="-115.3" font-family="Arial" font-size="14.00" fill="#666666">[BASE TABLE]</text>
<polygon fill="none" stroke="#000000" points="56.5,-72.5 56.5,-102.5 381.5,-102.5 381.5,-72.5 56.5,-72.5"/>
<text text-anchor="start" x="63.5" y="-83.9" font-family="Arial" font-size="14.00" fill="#000000">id </text>
<text text-anchor="start" x="78.2798" y="-83.9" font-family="Arial" font-size="14.00" fill="#666666">[integer]</text>
<polygon fill="none" stroke="#000000" points="56.5,-42.5 56.5,-72.5 381.5,-72.5 381.5,-42.5 56.5,-42.5"/>
<text text-anchor="start" x="63.5" y="-53.9" font-family="Arial" font-size="14.00" fill="#000000">name </text>
<text text-anchor="start" x="102.399" y="-53.9" font-family="Arial" font-size="14.00" fill="#666666">[varchar(255)]</text>
</g>
<!-- example_schema.example_2&#45;&gt;example_schema.example -->
<g id="edge1" class="edge">
<title>example_schema.example_2:example_1_id&#45;&gt;example_schema.example:id</title>
<path fill="none" stroke="#000000" d="M218.789,-252.463C208.8382,-187.3724 97.1689,-246.8037 56.5,-181 34.653,-145.6507 14.9444,-87.5 56.5,-87.5"/>
<polygon fill="#000000" stroke="#000000" points="218.7933,-252.525 215.0112,-262.818 219.1466,-257.5125 219.5,-262.5 219.5,-262.5 219.5,-262.5 219.1466,-257.5125 223.9888,-262.182 218.7933,-252.525 218.7933,-252.525"/>
<text text-anchor="start" x="226.4385" y="-272.5" font-family="Arial" font-size="10.00" fill="#000000">FOREIGN KEY (example_1_id) REFERENCES example(id)</text>
</g>
</g>
</svg>
