<?xml version="1.0" encoding="UTF-8" standalone="no"?>
<!DOCTYPE svg PUBLIC "-//W3C//DTD SVG 1.1//EN"
 "http://www.w3.org/Graphics/SVG/1.1/DTD/svg11.dtd">
<!-- Generated by graphviz version 2.40.1 (20161225.0304)
 -->
<!-- Title: example_schema.example Pages: 1 -->
<svg width="505pt" height="442pt"
 viewBox="0.00 0.00 504.50 442.00" xmlns="http://www.w3.org/2000/svg" xmlns:xlink="http://www.w3.org/1999/xlink">
<g id="graph0" class="graph" transform="scale(1 1) rotate(0) translate(4 438)">
<title>example_schema.example</title>
<polygon fill="#ffffff" stroke="transparent" points="-4,4 -4,-438 500.5,-438 500.5,4 -4,4"/>
<!-- example_schema.example -->
<g id="node1" class="node">
<title>example_schema.example</title>
<polygon fill="#efefef" stroke="transparent" points="53.5,-105.5 53.5,-140.5 378.5,-140.5 378.5,-105.5 53.5,-105.5"/>
<polygon fill="none" stroke="#000000" points="53.5,-105.5 53.5,-140.5 378.5,-140.5 378.5,-105.5 53.5,-105.5"/>
<text text-anchor="start" x="60.3523" y="-118.3" font-family="Arial Bold" font-size="18.00" fill="#000000">example_schema.example</text>
<text text-anchor="start" x="274.3939" y="-118.3" font-family="Arial" font-size="14.00" fill="#000000"> </text>
<text text-anchor="start" x="278.2845" y="-118.3" font-family="Arial" font-size="14.00" fill="#666666">[BASE TABLE]</text>
<polygon fill="none" stroke="#000000" points="53.5,-75.5 53.5,-105.5 378.5,-105.5 378.5,-75.5 53.5,-75.5"/>
<text text-anchor="start" x="60.5" y="-86.9" font-family="Arial" font-size="14.00" fill="#000000">id </text>
<text text-anchor="start" x="75.2798" y="-86.9" font-family="Arial" font-size="14.00" fill="#666666">[integer]</text>
<polygon fill="none" stroke="#000000" points="53.5,-45.5 53.5,-75.5 378.5,-75.5 378.5,-45.5 53.5,-45.5"/>
<text text-anchor="start" x="60.5" y="-56.9" font-family="Arial" font-size="14.00" fill="#000000">name </text>
<text text-anchor="start" x="99.399" y="-56.9" font-family="Arial" font-size="14.00" fill="#666666">[varchar(255)]</text>
<polygon fill="none" stroke="#000000" stroke-width="3" points="51.5,-44.5 51.5,-142.5 379.5,-142.5 379.5,-44.5 51.5,-44.5"/>
</g>
<!-- example_schema.example_2 -->
<g id="node2" class="node">
<title>example_schema.example_2</title>
<polygon fill="#efefef" stroke="transparent" points="43.5,-355.5 43.5,-390.5 388.5,-390.5 388.5,-355.5 43.5,-355.5"/>
<polygon fill="none" stroke="#000000" points="43.5,-355.5 43.5,-390.5 388.5,-390.5 388.5,-355.5 43.5,-355.5"/>
<text text-anchor="start" x="50.3461" y="-368.3" font-family="Arial Bold" font-size="18.00" fill="#000000">example_schema.example_2</text>
<text text-anchor="start" x="284.4001" y="-368.3" font-family="Arial" font-size="14.00" fill="#000000"> </text>
<text text-anchor="start" x="288.2907" y="-368.3" font-family="Arial" font-size="14.00" fill="#666666">[BASE TABLE]</text>
<polygon fill="none" stroke="#000000" points="43.5,-325.5 43.5,-355.5 388.5,-355.5 388.5,-325.5 43.5,-325.5"/>
<text text-anchor="start" x="50.5" y="-336.9" font-family="Arial" font-size="14.00" fill="#000000">id </text>
<text text-anchor="start" x="65.2798" y="-336.9" font-family="Arial" font-size="14.00" fill="#666666">[integer]</text>
<polygon fill="none" stroke="#000000" points="43.5,-295.5 43.5,-325.5 388.5,-325.5 388.5,-295.5 43.5,-295.5"/>
<text text-anchor="start" x="50.5" y="-306.9" font-family="Arial" font-size="14.00" fill="#000000">name </text>
<text text-anchor="start" x="89.399" y="-306.9" font-family="Arial" font-size="14.00" fill="#666666">[varchar(255)]</text>
<polygon fill="none" stroke="#000000" points="43.5,-265.5 43.5,-295.5 388.5,-295.5 388.5,-265.5 43.5,-265.5"/>
<text text-anchor="start" x="50.5" y="-276.9" font-family="Arial" font-size="14.00" fill="#000000">example_1_id </text>
<text text-anchor="start" x="141.5252" y="-276.9" font-family="Arial" font-size="14.00" fill="#666666">[integer]</text>
</g>
<!-- example_schema.example_2&#45;&gt;example_schema.example -->
<g id="edge1" class="edge">
<title>example_schema.example_2:example_1_id&#45;&gt;example_schema.example:id</title>
<path fill="none" stroke="#000000" d="M215.7279,-255.1543C205.3994,-191.3504 94.2738,-251.8923 53.5,-187 30.682,-150.6848 10.6111,-90.5 53.5,-90.5"/>
<polygon fill="#000000" stroke="#000000" points="215.7557,-255.5277 212.0125,-265.835 216.1278,-260.5139 216.5,-265.5 216.5,-265.5 216.5,-265.5 216.1278,-260.5139 220.9875,-265.165 215.7557,-255.5277 215.7557,-255.5277"/>
<text text-anchor="start" x="223.4385" y="-275.5" font-family="Arial" font-size="10.00" fill="#000000">FOREIGN KEY (example_1_id) REFERENCES example(id)</text>
</g>
</g>
</svg>
