<?xml version="1.0" encoding="UTF-8" standalone="no"?>
<!DOCTYPE svg PUBLIC "-//W3C//DTD SVG 1.1//EN"
 "http://www.w3.org/Graphics/SVG/1.1/DTD/svg11.dtd">
<!-- Generated by graphviz version 2.40.1 (20161225.0304)
 -->
<!-- Title: foo.example Pages: 1 -->
<svg width="580pt" height="689pt"
 viewBox="0.00 0.00 579.50 689.00" xmlns="http://www.w3.org/2000/svg" xmlns:xlink="http://www.w3.org/1999/xlink">
<g id="graph0" class="graph" transform="scale(1 1) rotate(0) translate(4 685)">
<title>foo.example</title>
<polygon fill="#ffffff" stroke="transparent" points="-4,4 -4,-685 575.5,-685 575.5,4 -4,4"/>
<!-- foo.example -->
<g id="node1" class="node">
<title>foo.example</title>
<polygon fill="#efefef" stroke="transparent" points="53.5,-352.5 53.5,-387.5 262.5,-387.5 262.5,-352.5 53.5,-352.5"/>
<polygon fill="none" stroke="#000000" points="53.5,-352.5 53.5,-387.5 262.5,-387.5 262.5,-352.5 53.5,-352.5"/>
<text text-anchor="start" x="60.3591" y="-365.3" font-family="Arial Bold" font-size="18.00" fill="#000000">foo.example</text>
<text text-anchor="start" x="158.3871" y="-365.3" font-family="Arial" font-size="14.00" fill="#000000"> </text>
<text text-anchor="start" x="162.2777" y="-365.3" font-family="Arial" font-size="14.00" fill="#666666">[BASE TABLE]</text>
<polygon fill="none" stroke="#000000" points="53.5,-322.5 53.5,-352.5 262.5,-352.5 262.5,-322.5 53.5,-322.5"/>
<text text-anchor="start" x="60.5" y="-333.9" font-family="Arial" font-size="14.00" fill="#000000">id </text>
<text text-anchor="start" x="75.2798" y="-333.9" font-family="Arial" font-size="14.00" fill="#666666">[integer]</text>
<polygon fill="none" stroke="#000000" points="53.5,-292.5 53.5,-322.5 262.5,-322.5 262.5,-292.5 53.5,-292.5"/>
<text text-anchor="start" x="60.5" y="-303.9" font-family="Arial" font-size="14.00" fill="#000000">example_schema_id </text>
<text text-anchor="start" x="192.751" y="-303.9" font-family="Arial" font-size="14.00" fill="#666666">[integer]</text>
<polygon fill="none" stroke="#000000" points="53.5,-262.5 53.5,-292.5 262.5,-292.5 262.5,-262.5 53.5,-262.5"/>
<text text-anchor="start" x="60.5" y="-273.9" font-family="Arial" font-size="14.00" fill="#000000">name </text>
<text text-anchor="start" x="99.399" y="-273.9" font-family="Arial" font-size="14.00" fill="#666666">[varchar(255)]</text>
<polygon fill="none" stroke="#000000" stroke-width="3" points="51.5,-261.5 51.5,-389.5 263.5,-389.5 263.5,-261.5 51.5,-261.5"/>
</g>
<!-- bar.example -->
<g id="node3" class="node">
<title>bar.example</title>
<polygon fill="#efefef" stroke="transparent" points="53.5,-102.5 53.5,-137.5 263.5,-137.5 263.5,-102.5 53.5,-102.5"/>
<polygon fill="none" stroke="#000000" points="53.5,-102.5 53.5,-137.5 263.5,-137.5 263.5,-102.5 53.5,-102.5"/>
<text text-anchor="start" x="60.3641" y="-115.3" font-family="Arial Bold" font-size="18.00" fill="#000000">bar.example</text>
<text text-anchor="start" x="159.3821" y="-115.3" font-family="Arial" font-size="14.00" fill="#000000"> </text>
<text text-anchor="start" x="163.2727" y="-115.3" font-family="Arial" font-size="14.00" fill="#666666">[BASE TABLE]</text>
<polygon fill="none" stroke="#000000" points="53.5,-72.5 53.5,-102.5 263.5,-102.5 263.5,-72.5 53.5,-72.5"/>
<text text-anchor="start" x="60.5" y="-83.9" font-family="Arial" font-size="14.00" fill="#000000">id </text>
<text text-anchor="start" x="75.2798" y="-83.9" font-family="Arial" font-size="14.00" fill="#666666">[integer]</text>
<polygon fill="none" stroke="#000000" points="53.5,-42.5 53.5,-72.5 263.5,-72.5 263.5,-42.5 53.5,-42.5"/>
<text text-anchor="start" x="60.5" y="-53.9" font-family="Arial" font-size="14.00" fill="#000000">name </text>
<text text-anchor="start" x="99.399" y="-53.9" font-family="Arial" font-size="14.00" fill="#666666">[varchar(255)]</text>
</g>
<!-- foo.example&#45;&gt;bar.example -->
<g id="edge2" class="edge">
<title>foo.example:example_schema_id&#45;&gt;bar.example:id</title>
<path fill="none" stroke="#000000" d="M272.4101,-305.9979C299.9376,-296.5536 285.9857,-244.877 262.5,-217 201.7701,-144.9151 114.2299,-253.0849 53.5,-181 26.7257,-149.2195 11.9444,-87.5 53.5,-87.5"/>
<polygon fill="#000000" stroke="#000000" points="272.3871,-306.0013 261.8256,-303.0508 267.4435,-306.7507 262.5,-307.5 262.5,-307.5 262.5,-307.5 267.4435,-306.7507 263.1744,-311.9492 272.3871,-306.0013 272.3871,-306.0013"/>
<text text-anchor="start" x="269.715" y="-317.5" font-family="Arial" font-size="10.00" fill="#000000">FOREIGN KEY (example_schema_id) REFERENCES example(id)</text>
</g>
<!-- foo.example_2 -->
<g id="node2" class="node">
<title>foo.example_2</title>
<polygon fill="#efefef" stroke="transparent" points="43.5,-602.5 43.5,-637.5 272.5,-637.5 272.5,-602.5 43.5,-602.5"/>
<polygon fill="none" stroke="#000000" points="43.5,-602.5 43.5,-637.5 272.5,-637.5 272.5,-602.5 43.5,-602.5"/>
<text text-anchor="start" x="50.3529" y="-615.3" font-family="Arial Bold" font-size="18.00" fill="#000000">foo.example_2</text>
<text text-anchor="start" x="168.3933" y="-615.3" font-family="Arial" font-size="14.00" fill="#000000"> </text>
<text text-anchor="start" x="172.2839" y="-615.3" font-family="Arial" font-size="14.00" fill="#666666">[BASE TABLE]</text>
<polygon fill="none" stroke="#000000" points="43.5,-572.5 43.5,-602.5 272.5,-602.5 272.5,-572.5 43.5,-572.5"/>
<text text-anchor="start" x="50.5" y="-583.9" font-family="Arial" font-size="14.00" fill="#000000">id </text>
<text text-anchor="start" x="65.2798" y="-583.9" font-family="Arial" font-size="14.00" fill="#666666">[integer]</text>
<polygon fill="none" stroke="#000000" points="43.5,-542.5 43.5,-572.5 272.5,-572.5 272.5,-542.5 43.5,-542.5"/>
<text text-anchor="start" x="50.5" y="-553.9" font-family="Arial" font-size="14.00" fill="#000000">name </text>
<text text-anchor="start" x="89.399" y="-553.9" font-family="Arial" font-size="14.00" fill="#666666">[varchar(255)]</text>
<polygon fill="none" stroke="#000000" points="43.5,-512.5 43.5,-542.5 272.5,-542.5 272.5,-512.5 43.5,-512.5"/>
<text text-anchor="start" x="50.5" y="-523.9" font-family="Arial" font-size="14.00" fill="#000000">example_1_id </text>
<text text-anchor="start" x="141.5252" y="-523.9" font-family="Arial" font-size="14.00" fill="#666666">[integer]</text>
</g>
<!-- foo.example_2&#45;&gt;foo.example -->
<g id="edge1" class="edge">
<title>foo.example_2:example_1_id&#45;&gt;foo.example:id</title>
<path fill="none" stroke="#000000" d="M157.5519,-502.3102C148.5483,-457.9917 77.9154,-482.7377 53.5,-434 34.2903,-395.6537 10.6111,-337.5 53.5,-337.5"/>
<polygon fill="#000000" stroke="#000000" points="157.5735,-502.543 154.0194,-512.9169 158.0368,-507.5215 158.5,-512.5 158.5,-512.5 158.5,-512.5 158.0368,-507.5215 162.9806,-512.0831 157.5735,-502.543 157.5735,-502.543"/>
<text text-anchor="start" x="165.1005" y="-522.5" font-family="Arial" font-size="10.00" fill="#000000">FOREIGN KEY (example_1_id) REFERENCES foo.example(id)</text>
</g>
</g>
</svg>
