<?xml version="1.0" encoding="UTF-8" standalone="no"?>
<!DOCTYPE svg PUBLIC "-//W3C//DTD SVG 1.1//EN"
 "http://www.w3.org/Graphics/SVG/1.1/DTD/svg11.dtd">
<!-- Generated by graphviz version 2.40.1 (20161225.0304)
 -->
<!-- Title: db&#45;example Pages: 1 -->
<svg width="1127pt" height="683pt"
 viewBox="0.00 0.00 1126.50 683.00" xmlns="http://www.w3.org/2000/svg" xmlns:xlink="http://www.w3.org/1999/xlink">
<g id="graph0" class="graph" transform="scale(1 1) rotate(0) translate(4 679)">
<title>db&#45;example</title>
<polygon fill="#ffffff" stroke="transparent" points="-4,4 -4,-679 1122.5,-679 1122.5,4 -4,4"/>
<!-- bar.schema_migrations -->
<g id="node1" class="node">
<title>bar.schema_migrations</title>
<polygon fill="#efefef" stroke="transparent" points="43,-581.5 43,-616.5 341,-616.5 341,-581.5 43,-581.5"/>
<polygon fill="none" stroke="#000000" points="43,-581.5 43,-616.5 341,-616.5 341,-581.5 43,-581.5"/>
<text text-anchor="start" x="49.8613" y="-594.3" font-family="Arial Bold" font-size="18.00" fill="#000000">bar.schema_migrations</text>
<text text-anchor="start" x="236.8849" y="-594.3" font-family="Arial" font-size="14.00" fill="#000000"> </text>
<text text-anchor="start" x="240.7755" y="-594.3" font-family="Arial" font-size="14.00" fill="#666666">[BASE TABLE]</text>
<polygon fill="none" stroke="#000000" points="43,-551.5 43,-581.5 341,-581.5 341,-551.5 43,-551.5"/>
<text text-anchor="start" x="50" y="-562.9" font-family="Arial" font-size="14.00" fill="#000000">version </text>
<text text-anchor="start" x="99.0056" y="-562.9" font-family="Arial" font-size="14.00" fill="#666666">[bigint]</text>
<polygon fill="none" stroke="#000000" points="43,-521.5 43,-551.5 341,-551.5 341,-521.5 43,-521.5"/>
<text text-anchor="start" x="50" y="-532.9" font-family="Arial" font-size="14.00" fill="#000000">dirty </text>
<text text-anchor="start" x="80.331" y="-532.9" font-family="Arial" font-size="14.00" fill="#666666">[boolean]</text>
</g>
<!-- bar.example -->
<g id="node2" class="node">
<title>bar.example</title>
<polygon fill="#efefef" stroke="transparent" points="293,-102.5 293,-137.5 503,-137.5 503,-102.5 293,-102.5"/>
<polygon fill="none" stroke="#000000" points="293,-102.5 293,-137.5 503,-137.5 503,-102.5 293,-102.5"/>
<text text-anchor="start" x="299.8641" y="-115.3" font-family="Arial Bold" font-size="18.00" fill="#000000">bar.example</text>
<text text-anchor="start" x="398.8821" y="-115.3" font-family="Arial" font-size="14.00" fill="#000000"> </text>
<text text-anchor="start" x="402.7727" y="-115.3" font-family="Arial" font-size="14.00" fill="#666666">[BASE TABLE]</text>
<polygon fill="none" stroke="#000000" points="293,-72.5 293,-102.5 503,-102.5 503,-72.5 293,-72.5"/>
<text text-anchor="start" x="300" y="-83.9" font-family="Arial" font-size="14.00" fill="#000000">id </text>
<text text-anchor="start" x="314.7798" y="-83.9" font-family="Arial" font-size="14.00" fill="#666666">[integer]</text>
<polygon fill="none" stroke="#000000" points="293,-42.5 293,-72.5 503,-72.5 503,-42.5 293,-42.5"/>
<text text-anchor="start" x="300" y="-53.9" font-family="Arial" font-size="14.00" fill="#000000">name </text>
<text text-anchor="start" x="338.899" y="-53.9" font-family="Arial" font-size="14.00" fill="#666666">[varchar(255)]</text>
</g>
<!-- bar.example_2 -->
<g id="node3" class="node">
<title>bar.example_2</title>
<polygon fill="#efefef" stroke="transparent" points="121,-349.5 121,-384.5 351,-384.5 351,-349.5 121,-349.5"/>
<polygon fill="none" stroke="#000000" points="121,-349.5 121,-384.5 351,-384.5 351,-349.5 121,-349.5"/>
<text text-anchor="start" x="127.8579" y="-362.3" font-family="Arial Bold" font-size="18.00" fill="#000000">bar.example_2</text>
<text text-anchor="start" x="246.8883" y="-362.3" font-family="Arial" font-size="14.00" fill="#000000"> </text>
<text text-anchor="start" x="250.7789" y="-362.3" font-family="Arial" font-size="14.00" fill="#666666">[BASE TABLE]</text>
<polygon fill="none" stroke="#000000" points="121,-319.5 121,-349.5 351,-349.5 351,-319.5 121,-319.5"/>
<text text-anchor="start" x="128" y="-330.9" font-family="Arial" font-size="14.00" fill="#000000">id </text>
<text text-anchor="start" x="142.7798" y="-330.9" font-family="Arial" font-size="14.00" fill="#666666">[integer]</text>
<polygon fill="none" stroke="#000000" points="121,-289.5 121,-319.5 351,-319.5 351,-289.5 121,-289.5"/>
<text text-anchor="start" x="128" y="-300.9" font-family="Arial" font-size="14.00" fill="#000000">name </text>
<text text-anchor="start" x="166.899" y="-300.9" font-family="Arial" font-size="14.00" fill="#666666">[varchar(255)]</text>
<polygon fill="none" stroke="#000000" points="121,-259.5 121,-289.5 351,-289.5 351,-259.5 121,-259.5"/>
<text text-anchor="start" x="128" y="-270.9" font-family="Arial" font-size="14.00" fill="#000000">example_1_id </text>
<text text-anchor="start" x="219.0252" y="-270.9" font-family="Arial" font-size="14.00" fill="#666666">[integer]</text>
</g>
<!-- bar.example_2&#45;&gt;bar.example -->
<g id="edge1" class="edge">
<title>bar.example_2:example_1_id&#45;&gt;bar.example:id</title>
<path fill="none" stroke="#000000" d="M360.9485,-271.6271C372.0623,-262.7904 361.288,-235.4943 351,-217 336.2511,-190.4865 307.7489,-207.5135 293,-181 272.7988,-144.6851 251.4444,-87.5 293,-87.5"/>
<polygon fill="#000000" stroke="#000000" points="360.6074,-271.7255 349.7515,-270.1767 355.8037,-273.1128 351,-274.5 351,-274.5 351,-274.5 355.8037,-273.1128 352.2485,-278.8233 360.6074,-271.7255 360.6074,-271.7255"/>
<text text-anchor="start" x="357.9385" y="-284.5" font-family="Arial" font-size="10.00" fill="#000000">FOREIGN KEY (example_1_id) REFERENCES example(id)</text>
</g>
<!-- foo.schema_migrations -->
<g id="node4" class="node">
<title>foo.schema_migrations</title>
<polygon fill="#efefef" stroke="transparent" points="779,-581.5 779,-616.5 1076,-616.5 1076,-581.5 779,-581.5"/>
<polygon fill="none" stroke="#000000" points="779,-581.5 779,-616.5 1076,-616.5 1076,-581.5 779,-581.5"/>
<text text-anchor="start" x="785.8563" y="-594.3" font-family="Arial Bold" font-size="18.00" fill="#000000">foo.schema_migrations</text>
<text text-anchor="start" x="971.8899" y="-594.3" font-family="Arial" font-size="14.00" fill="#000000"> </text>
<text text-anchor="start" x="975.7805" y="-594.3" font-family="Arial" font-size="14.00" fill="#666666">[BASE TABLE]</text>
<polygon fill="none" stroke="#000000" points="779,-551.5 779,-581.5 1076,-581.5 1076,-551.5 779,-551.5"/>
<text text-anchor="start" x="786" y="-562.9" font-family="Arial" font-size="14.00" fill="#000000">version </text>
<text text-anchor="start" x="835.0056" y="-562.9" font-family="Arial" font-size="14.00" fill="#666666">[bigint]</text>
<polygon fill="none" stroke="#000000" points="779,-521.5 779,-551.5 1076,-551.5 1076,-521.5 779,-521.5"/>
<text text-anchor="start" x="786" y="-532.9" font-family="Arial" font-size="14.00" fill="#000000">dirty </text>
<text text-anchor="start" x="816.331" y="-532.9" font-family="Arial" font-size="14.00" fill="#666666">[boolean]</text>
</g>
<!-- foo.example -->
<g id="node5" class="node">
<title>foo.example</title>
<polygon fill="#efefef" stroke="transparent" points="456,-349.5 456,-384.5 665,-384.5 665,-349.5 456,-349.5"/>
<polygon fill="none" stroke="#000000" points="456,-349.5 456,-384.5 665,-384.5 665,-349.5 456,-349.5"/>
<text text-anchor="start" x="462.8591" y="-362.3" font-family="Arial Bold" font-size="18.00" fill="#000000">foo.example</text>
<text text-anchor="start" x="560.8871" y="-362.3" font-family="Arial" font-size="14.00" fill="#000000"> </text>
<text text-anchor="start" x="564.7777" y="-362.3" font-family="Arial" font-size="14.00" fill="#666666">[BASE TABLE]</text>
<polygon fill="none" stroke="#000000" points="456,-319.5 456,-349.5 665,-349.5 665,-319.5 456,-319.5"/>
<text text-anchor="start" x="463" y="-330.9" font-family="Arial" font-size="14.00" fill="#000000">id </text>
<text text-anchor="start" x="477.7798" y="-330.9" font-family="Arial" font-size="14.00" fill="#666666">[integer]</text>
<polygon fill="none" stroke="#000000" points="456,-289.5 456,-319.5 665,-319.5 665,-289.5 456,-289.5"/>
<text text-anchor="start" x="463" y="-300.9" font-family="Arial" font-size="14.00" fill="#000000">example_schema_id </text>
<text text-anchor="start" x="595.251" y="-300.9" font-family="Arial" font-size="14.00" fill="#666666">[integer]</text>
<polygon fill="none" stroke="#000000" points="456,-259.5 456,-289.5 665,-289.5 665,-259.5 456,-259.5"/>
<text text-anchor="start" x="463" y="-270.9" font-family="Arial" font-size="14.00" fill="#000000">name </text>
<text text-anchor="start" x="501.899" y="-270.9" font-family="Arial" font-size="14.00" fill="#666666">[varchar(255)]</text>
</g>
<!-- foo.example&#45;&gt;bar.example -->
<g id="edge2" class="edge">
<title>foo.example:example_schema_id&#45;&gt;bar.example:id</title>
<path fill="none" stroke="#000000" d="M445.957,-302.9451C421.4676,-293.9929 440.5333,-248.3294 456,-217 467.6479,-193.4061 491.3521,-204.5939 503,-181 521.3956,-143.7379 544.5556,-87.5 503,-87.5"/>
<polygon fill="#000000" stroke="#000000" points="446.1177,-302.9699 455.3115,-308.947 451.0589,-303.735 456,-304.5 456,-304.5 456,-304.5 451.0589,-303.735 456.6885,-300.053 446.1177,-302.9699 446.1177,-302.9699"/>
<text text-anchor="start" x="463.215" y="-314.5" font-family="Arial" font-size="10.00" fill="#000000">FOREIGN KEY (example_schema_id) REFERENCES example(id)</text>
</g>
<!-- foo.example_2 -->
<g id="node6" class="node">
<title>foo.example_2</title>
<polygon fill="#efefef" stroke="transparent" points="446,-596.5 446,-631.5 675,-631.5 675,-596.5 446,-596.5"/>
<polygon fill="none" stroke="#000000" points="446,-596.5 446,-631.5 675,-631.5 675,-596.5 446,-596.5"/>
<text text-anchor="start" x="452.8529" y="-609.3" font-family="Arial Bold" font-size="18.00" fill="#000000">foo.example_2</text>
<text text-anchor="start" x="570.8933" y="-609.3" font-family="Arial" font-size="14.00" fill="#000000"> </text>
<text text-anchor="start" x="574.7839" y="-609.3" font-family="Arial" font-size="14.00" fill="#666666">[BASE TABLE]</text>
<polygon fill="none" stroke="#000000" points="446,-566.5 446,-596.5 675,-596.5 675,-566.5 446,-566.5"/>
<text text-anchor="start" x="453" y="-577.9" font-family="Arial" font-size="14.00" fill="#000000">id </text>
<text text-anchor="start" x="467.7798" y="-577.9" font-family="Arial" font-size="14.00" fill="#666666">[integer]</text>
<polygon fill="none" stroke="#000000" points="446,-536.5 446,-566.5 675,-566.5 675,-536.5 446,-536.5"/>
<text text-anchor="start" x="453" y="-547.9" font-family="Arial" font-size="14.00" fill="#000000">name </text>
<text text-anchor="start" x="491.899" y="-547.9" font-family="Arial" font-size="14.00" fill="#666666">[varchar(255)]</text>
<polygon fill="none" stroke="#000000" points="446,-506.5 446,-536.5 675,-536.5 675,-506.5 446,-506.5"/>
<text text-anchor="start" x="453" y="-517.9" font-family="Arial" font-size="14.00" fill="#000000">example_1_id </text>
<text text-anchor="start" x="544.0252" y="-517.9" font-family="Arial" font-size="14.00" fill="#666666">[integer]</text>
</g>
<!-- foo.example_2&#45;&gt;foo.example -->
<g id="edge3" class="edge">
<title>foo.example_2:example_1_id&#45;&gt;foo.example:id</title>
<path fill="none" stroke="#000000" d="M560.0519,-496.3102C551.0483,-451.9917 480.4154,-476.7377 456,-428 437.3874,-390.8458 414.4444,-334.5 456,-334.5"/>
<polygon fill="#000000" stroke="#000000" points="560.0735,-496.543 556.5194,-506.9169 560.5368,-501.5215 561,-506.5 561,-506.5 561,-506.5 560.5368,-501.5215 565.4806,-506.0831 560.0735,-496.543 560.0735,-496.543"/>
<text text-anchor="start" x="271.6005" y="-516.5" font-family="Arial" font-size="10.00" fill="#000000">FOREIGN KEY (example_1_id) REFERENCES foo.example(id)</text>
</g>
</g>
</svg>
