<?xml version="1.0" encoding="UTF-8" standalone="no"?>
<!DOCTYPE svg PUBLIC "-//W3C//DTD SVG 1.1//EN"
 "http://www.w3.org/Graphics/SVG/1.1/DTD/svg11.dtd">
<!-- Generated by graphviz version 2.40.1 (20161225.0304)
 -->
<!-- Title: db&#45;example Pages: 1 -->
<svg width="1022pt" height="436pt"
 viewBox="0.00 0.00 1021.50 436.00" xmlns="http://www.w3.org/2000/svg" xmlns:xlink="http://www.w3.org/1999/xlink">
<g id="graph0" class="graph" transform="scale(1 1) rotate(0) translate(4 432)">
<title>db&#45;example</title>
<polygon fill="#ffffff" stroke="transparent" points="-4,4 -4,-432 1017.5,-432 1017.5,4 -4,4"/>
<!-- example_schema.schema_migrations -->
<g id="node1" class="node">
<title>example_schema.schema_migrations</title>
<polygon fill="#efefef" stroke="transparent" points="43.5,-334.5 43.5,-369.5 456.5,-369.5 456.5,-334.5 43.5,-334.5"/>
<polygon fill="none" stroke="#000000" points="43.5,-334.5 43.5,-369.5 456.5,-369.5 456.5,-334.5 43.5,-334.5"/>
<text text-anchor="start" x="50.3495" y="-347.3" font-family="Arial Bold" font-size="18.00" fill="#000000">example_schema.schema_migrations</text>
<text text-anchor="start" x="352.3967" y="-347.3" font-family="Arial" font-size="14.00" fill="#000000"> </text>
<text text-anchor="start" x="356.2873" y="-347.3" font-family="Arial" font-size="14.00" fill="#666666">[BASE TABLE]</text>
<polygon fill="none" stroke="#000000" points="43.5,-304.5 43.5,-334.5 456.5,-334.5 456.5,-304.5 43.5,-304.5"/>
<text text-anchor="start" x="50.5" y="-315.9" font-family="Arial" font-size="14.00" fill="#000000">version </text>
<text text-anchor="start" x="99.5056" y="-315.9" font-family="Arial" font-size="14.00" fill="#666666">[bigint]</text>
<polygon fill="none" stroke="#000000" points="43.5,-274.5 43.5,-304.5 456.5,-304.5 456.5,-274.5 43.5,-274.5"/>
<text text-anchor="start" x="50.5" y="-285.9" font-family="Arial" font-size="14.00" fill="#000000">dirty </text>
<text text-anchor="start" x="80.831" y="-285.9" font-family="Arial" font-size="14.00" fill="#666666">[boolean]</text>
</g>
<!-- example_schema.example -->
<g id="node2" class="node">
<title>example_schema.example</title>
<polygon fill="#efefef" stroke="transparent" points="570.5,-102.5 570.5,-137.5 895.5,-137.5 895.5,-102.5 570.5,-102.5"/>
<polygon fill="none" stroke="#000000" points="570.5,-102.5 570.5,-137.5 895.5,-137.5 895.5,-102.5 570.5,-102.5"/>
<text text-anchor="start" x="577.3523" y="-115.3" font-family="Arial Bold" font-size="18.00" fill="#000000">example_schema.example</text>
<text text-anchor="start" x="791.3939" y="-115.3" font-family="Arial" font-size="14.00" fill="#000000"> </text>
<text text-anchor="start" x="795.2845" y="-115.3" font-family="Arial" font-size="14.00" fill="#666666">[BASE TABLE]</text>
<polygon fill="none" stroke="#000000" points="570.5,-72.5 570.5,-102.5 895.5,-102.5 895.5,-72.5 570.5,-72.5"/>
<text text-anchor="start" x="577.5" y="-83.9" font-family="Arial" font-size="14.00" fill="#000000">id </text>
<text text-anchor="start" x="592.2798" y="-83.9" font-family="Arial" font-size="14.00" fill="#666666">[integer]</text>
<polygon fill="none" stroke="#000000" points="570.5,-42.5 570.5,-72.5 895.5,-72.5 895.5,-42.5 570.5,-42.5"/>
<text text-anchor="start" x="577.5" y="-53.9" font-family="Arial" font-size="14.00" fill="#000000">name </text>
<text text-anchor="start" x="616.399" y="-53.9" font-family="Arial" font-size="14.00" fill="#666666">[varchar(255)]</text>
</g>
<!-- example_schema.example_2 -->
<g id="node3" class="node">
<title>example_schema.example_2</title>
<polygon fill="#efefef" stroke="transparent" points="560.5,-349.5 560.5,-384.5 905.5,-384.5 905.5,-349.5 560.5,-349.5"/>
<polygon fill="none" stroke="#000000" points="560.5,-349.5 560.5,-384.5 905.5,-384.5 905.5,-349.5 560.5,-349.5"/>
<text text-anchor="start" x="567.3461" y="-362.3" font-family="Arial Bold" font-size="18.00" fill="#000000">example_schema.example_2</text>
<text text-anchor="start" x="801.4001" y="-362.3" font-family="Arial" font-size="14.00" fill="#000000"> </text>
<text text-anchor="start" x="805.2907" y="-362.3" font-family="Arial" font-size="14.00" fill="#666666">[BASE TABLE]</text>
<polygon fill="none" stroke="#000000" points="560.5,-319.5 560.5,-349.5 905.5,-349.5 905.5,-319.5 560.5,-319.5"/>
<text text-anchor="start" x="567.5" y="-330.9" font-family="Arial" font-size="14.00" fill="#000000">id </text>
<text text-anchor="start" x="582.2798" y="-330.9" font-family="Arial" font-size="14.00" fill="#666666">[integer]</text>
<polygon fill="none" stroke="#000000" points="560.5,-289.5 560.5,-319.5 905.5,-319.5 905.5,-289.5 560.5,-289.5"/>
<text text-anchor="start" x="567.5" y="-300.9" font-family="Arial" font-size="14.00" fill="#000000">name </text>
<text text-anchor="start" x="606.399" y="-300.9" font-family="Arial" font-size="14.00" fill="#666666">[varchar(255)]</text>
<polygon fill="none" stroke="#000000" points="560.5,-259.5 560.5,-289.5 905.5,-289.5 905.5,-259.5 560.5,-259.5"/>
<text text-anchor="start" x="567.5" y="-270.9" font-family="Arial" font-size="14.00" fill="#000000">example_1_id </text>
<text text-anchor="start" x="658.5252" y="-270.9" font-family="Arial" font-size="14.00" fill="#666666">[integer]</text>
</g>
<!-- example_schema.example_2&#45;&gt;example_schema.example -->
<g id="edge1" class="edge">
<title>example_schema.example_2:example_1_id&#45;&gt;example_schema.example:id</title>
<path fill="none" stroke="#000000" d="M732.7279,-249.1543C722.3994,-185.3504 611.2738,-245.8923 570.5,-181 548.3914,-145.8137 528.9444,-87.5 570.5,-87.5"/>
<polygon fill="#000000" stroke="#000000" points="732.7557,-249.5277 729.0125,-259.835 733.1278,-254.5139 733.5,-259.5 733.5,-259.5 733.5,-259.5 733.1278,-254.5139 737.9875,-259.165 732.7557,-249.5277 732.7557,-249.5277"/>
<text text-anchor="start" x="740.4385" y="-269.5" font-family="Arial" font-size="10.00" fill="#000000">FOREIGN KEY (example_1_id) REFERENCES example(id)</text>
</g>
</g>
</svg>
